<svg width="52" height="51" viewBox="0 0 52 51" fill="none" xmlns="http://www.w3.org/2000/svg">
<path d="M25.8984 9H29.5167V11.6196H25.8984V9Z" fill="white"/>
<path fill-rule="evenodd" clip-rule="evenodd" d="M16.1611 29.5851C16.446 28.9839 16.6164 28.2906 16.6502 27.568L18.0055 27.6338C17.9635 28.5311 17.7519 29.4077 17.3831 30.186C17.0144 30.964 16.495 31.6294 15.8582 32.109C15.2195 32.5899 14.4833 32.8675 13.7158 32.8965C12.9479 32.9256 12.1971 32.704 11.5333 32.2689L12.2675 31.1066C12.7133 31.3988 13.1927 31.5332 13.6654 31.5154C14.1386 31.4974 14.6147 31.3265 15.0516 30.9976C15.4903 30.6672 15.8761 30.1866 16.1611 29.5851Z" fill="#64B5F6"/>
<path d="M25.8984 41H29.5167V43.6196H25.8984V41Z" fill="white"/>
<path fill-rule="evenodd" clip-rule="evenodd" d="M15.7458 31.7977C15.7461 31.7978 15.7464 31.7978 15.9338 31.1337C16.1212 30.4695 16.1215 30.4696 16.1219 30.4697L16.1226 30.4699L16.1243 30.4704L16.1286 30.4717L16.1407 30.4754C16.1504 30.4784 16.1632 30.4825 16.1789 30.4876C16.2103 30.4979 16.2533 30.5126 16.3062 30.5321C16.4118 30.5711 16.5576 30.6296 16.7289 30.7107C17.0691 30.8718 17.5224 31.1283 17.9608 31.5092C18.858 32.2887 19.6846 33.5936 19.3533 35.5504L18.0162 35.3155C18.2484 33.9436 17.6995 33.0988 17.0803 32.5608C16.7606 32.283 16.4205 32.0889 16.1568 31.964C16.0262 31.9021 15.9175 31.8587 15.844 31.8316C15.8074 31.8181 15.7797 31.8087 15.7628 31.8032C15.7544 31.8004 15.7487 31.7986 15.7458 31.7977C15.7445 31.7973 15.7438 31.7971 15.7438 31.7971L15.7438 31.7971L15.7445 31.7973L15.7453 31.7975L15.7458 31.7977Z" fill="#64B5F6"/>
<path fill-rule="evenodd" clip-rule="evenodd" d="M16.1773 17.7427C16.1775 17.7426 16.1778 17.7425 16.4233 18.3867C16.6688 19.031 16.6691 19.0309 16.6693 19.0308L16.6698 19.0305L16.6711 19.0301L16.6741 19.0288L16.6825 19.0254C16.6891 19.0227 16.6977 19.0191 16.7081 19.0147C16.729 19.0058 16.7574 18.9934 16.7923 18.9774C16.8619 18.9455 16.9579 18.8989 17.0721 18.837C17.299 18.714 17.6046 18.5265 17.9186 18.2676C18.539 17.756 19.2552 16.9099 19.3606 15.6827L18.0089 15.5623C17.948 16.2707 17.5336 16.8068 17.0648 17.1934C16.8341 17.3836 16.6055 17.5242 16.4345 17.617C16.3496 17.663 16.2806 17.6963 16.235 17.7173C16.2122 17.7277 16.1954 17.735 16.1856 17.7392L16.1761 17.7432L16.1762 17.7431L16.1769 17.7428L16.1773 17.7427ZM16.1761 17.7432L16.1755 17.7434L16.1754 17.7435C16.1754 17.7435 16.1756 17.7434 16.1761 17.7432Z" fill="#64B5F6"/>
<path fill-rule="evenodd" clip-rule="evenodd" d="M15.268 17.8598C14.4432 18.0155 13.6846 18.4917 13.1318 19.4067L14.2874 20.131C14.6392 19.5487 15.0679 19.3033 15.5152 19.2188C15.993 19.1286 16.5458 19.2142 17.1106 19.4088C17.6689 19.6011 18.1873 19.882 18.5722 20.1207C18.7629 20.239 18.9168 20.3444 19.0216 20.4193C19.074 20.4566 19.1139 20.4862 19.1399 20.5058C19.1528 20.5155 19.1623 20.5228 19.168 20.5272L19.1739 20.5317L19.1743 20.532C19.1741 20.5319 19.174 20.5318 19.5894 19.9854C20.0048 19.4391 20.0046 19.4389 20.0044 19.4387L20.0039 19.4384L20.0026 19.4374L19.999 19.4345L19.9873 19.4254C19.9775 19.4179 19.9639 19.4075 19.9466 19.3944C19.912 19.3684 19.8627 19.3319 19.8002 19.2873C19.6754 19.1983 19.4971 19.0762 19.2779 18.9402C18.843 18.6705 18.2308 18.3357 17.5453 18.0995C16.8663 17.8656 16.0622 17.7099 15.268 17.8598Z" fill="#64B5F6"/>
<path fill-rule="evenodd" clip-rule="evenodd" d="M17.4092 1.83511C18.4791 0.979036 19.8313 0.541739 21.2032 0.593326C22.5753 0.644918 23.8902 1.18266 24.89 2.11942C25.8915 3.05787 26.5065 4.33291 26.5941 5.70263L26.5965 5.74002L26.5916 48.0481L26.1123 48.3921C24.355 49.6533 22.398 50.8336 20.0869 50.8336H20.0861C18.0064 50.832 15.9848 50.1307 14.3755 48.8391C13.0377 47.7653 12.0532 46.3376 11.5431 44.732C11.499 44.7329 11.4548 44.7335 11.4107 44.7338L11.4067 44.7339H11.4027C9.83293 44.7333 8.28786 44.3334 6.92488 43.5706C5.56155 42.8075 4.42549 41.7062 3.64 40.3723C2.85411 39.0376 2.44949 37.5211 2.47348 35.9786C2.49206 34.7849 2.76678 33.6143 3.2732 32.5384C2.13786 31.5227 1.24932 30.2652 0.685319 28.8545C-0.00492866 27.128 -0.178668 25.2474 0.186364 23.4277C0.551293 21.6085 1.4381 19.9321 2.73679 18.5844C3.68652 17.5988 4.82891 16.8174 6.08918 16.2793C5.46457 15.0252 5.15959 13.6329 5.21647 12.22L5.2169 12.2095L5.21751 12.199C5.3217 10.4107 5.99022 8.70308 7.12334 7.30102C8.25401 5.902 9.79259 4.87396 11.5296 4.34111C12.8949 3.90342 14.3469 3.81024 15.7491 4.06156C16.0967 3.19553 16.6679 2.42823 17.4092 1.83511ZM24.335 4.34111C23.519 2.11942 19.4439 3.13627 18.8061 3.64659C18.1701 4.15554 17.7693 4.8592 17.6588 5.61216L17.463 6.94638L16.2 6.54022C14.9039 6.12339 13.499 6.12339 12.2028 6.54022L12.1952 6.54268L12.1875 6.54502C10.8618 6.95044 9.70695 7.7286 8.86927 8.76508C8.03468 9.79776 7.55273 11.0393 7.4756 12.3249C7.42255 13.7033 7.84963 15.0674 8.70239 16.2019L9.73808 17.5799L8.08927 18.0168C6.64687 18.399 5.3533 19.1575 4.35068 20.198C3.34865 21.2379 2.67716 22.5173 2.40202 23.8889C2.12699 25.2599 2.25689 26.6779 2.77974 27.9857C3.3029 29.2942 4.20157 30.4468 5.38406 31.3071L6.26001 31.9443L5.67828 32.8668C5.07526 33.8231 4.75184 34.9095 4.73464 36.0151C4.71744 37.1208 5.00689 38.2152 5.57933 39.1874C6.15218 40.1602 6.98992 40.9786 8.01391 41.5517C9.03705 42.1244 10.2055 42.4292 11.3994 42.4303C11.687 42.4282 11.9742 42.4086 12.2591 42.3716L13.3146 42.2345L13.513 43.2992C13.7824 44.744 14.5762 46.0674 15.7751 47.0297C16.9754 47.9931 18.5017 48.5288 20.0877 48.53M24.335 4.34111L24.3304 46.8457C22.8171 47.8835 21.4935 48.5298 20.0877 48.53" fill="white"/>
<path fill-rule="evenodd" clip-rule="evenodd" d="M13.6762 43.3541C13.6757 43.3535 13.6752 43.3529 12.8372 44.1262C11.9992 44.8995 11.9987 44.8989 11.9981 44.8983L11.997 44.897L11.9948 44.8944L11.9898 44.8888L11.9787 44.8758C11.9707 44.8664 11.9615 44.8554 11.9514 44.8429C11.9312 44.8179 11.907 44.7867 11.88 44.7493C11.8261 44.6749 11.7599 44.5746 11.6918 44.45C11.5563 44.2018 11.4076 43.8461 11.3417 43.3987C11.2019 42.449 11.465 41.3064 12.5014 40.1315L14.1836 41.671C13.5402 42.4005 13.5507 42.8703 13.5782 43.0571C13.5959 43.1779 13.6359 43.2713 13.6681 43.3302C13.6839 43.3591 13.6963 43.377 13.7001 43.3822C13.7007 43.3831 13.7011 43.3835 13.701 43.3835C13.7009 43.3834 13.6998 43.3819 13.6974 43.3789C13.6955 43.3765 13.6928 43.3732 13.6891 43.3689L13.6829 43.3617L13.6792 43.3575L13.6773 43.3553L13.6762 43.3541Z" fill="white"/>
<path d="M33.2451 50.3485C34.4454 50.3485 35.4184 49.4165 35.4184 48.2669C35.4184 47.1173 34.4454 46.1853 33.2451 46.1853C32.0448 46.1853 31.0718 47.1173 31.0718 48.2669C31.0718 49.4165 32.0448 50.3485 33.2451 50.3485Z" fill="white"/>
<path d="M33.2451 5.90447C34.4454 5.90447 35.4184 4.9725 35.4184 3.82286C35.4184 2.67321 34.4454 1.74124 33.2451 1.74124C32.0448 1.74124 31.0718 2.67321 31.0718 3.82286C31.0718 4.9725 32.0448 5.90447 33.2451 5.90447Z" fill="white"/>
<path d="M49.0265 28.3098C50.6687 28.3098 52 27.0346 52 25.4617C52 23.8888 50.6687 22.6136 49.0265 22.6136C47.3843 22.6136 46.053 23.8888 46.053 25.4617C46.053 27.0346 47.3843 28.3098 49.0265 28.3098Z" fill="white"/>
<path fill-rule="evenodd" clip-rule="evenodd" d="M47.9426 26.92H25.9781V24.6165H47.9426V26.92Z" fill="white"/>
<path d="M41.8247 14.1429C43.2107 14.1429 44.3342 13.0668 44.3342 11.7393C44.3342 10.4118 43.2107 9.33569 41.8247 9.33569C40.4388 9.33569 39.3152 10.4118 39.3152 11.7393C39.3152 13.0668 40.4388 14.1429 41.8247 14.1429Z" fill="white"/>
<path fill-rule="evenodd" clip-rule="evenodd" d="M33.1237 18.2673L39.4735 12.1855L41.0226 13.8637L34.02 20.5708H26.2396V18.2673H33.1237Z" fill="white"/>
<path d="M41.8247 42.3776C43.2107 42.3776 44.3342 41.3015 44.3342 39.974C44.3342 38.6466 43.2107 37.5704 41.8247 37.5704C40.4388 37.5704 39.3152 38.6466 39.3152 39.974C39.3152 41.3015 40.4388 42.3776 41.8247 42.3776Z" fill="white"/>
<path fill-rule="evenodd" clip-rule="evenodd" d="M26.2396 30.9656H34.02L41.0226 37.6728L39.4735 39.351L33.1237 33.2691H26.2396V30.9656Z" fill="white"/>
<path fill-rule="evenodd" clip-rule="evenodd" d="M16.4918 6.57279C16.4925 6.57292 16.4932 6.57306 16.7062 5.44189C16.9191 4.31072 16.9198 4.31086 16.9205 4.31101L16.922 4.31131L16.9252 4.31194L16.9324 4.31339L16.9493 4.31699C16.9618 4.31971 16.9767 4.32311 16.9939 4.32725C17.0282 4.33553 17.0715 4.34687 17.1226 4.36196C17.2245 4.39205 17.359 4.43761 17.5143 4.50462C17.8228 4.63775 18.2288 4.86223 18.6229 5.2318C19.457 6.01406 20.0866 7.30424 19.8951 9.25937L17.6448 9.03062C17.7705 7.74768 17.3682 7.18631 17.0912 6.92654C16.9297 6.77509 16.7602 6.68093 16.6321 6.62567C16.5692 6.5985 16.5201 6.58243 16.4931 6.57444C16.4797 6.57049 16.4722 6.56867 16.4718 6.56856C16.4715 6.56851 16.4731 6.56889 16.4766 6.56966L16.4834 6.57109L16.4879 6.57201L16.4905 6.57252L16.4918 6.57279Z" fill="white"/>
<path fill-rule="evenodd" clip-rule="evenodd" d="M27.7267 10.0414L32.3101 3.17523L34.1802 4.47049L29.5968 11.3366L27.7267 10.0414Z" fill="white"/>
<path fill-rule="evenodd" clip-rule="evenodd" d="M29.5968 40.7531L34.1802 47.6193L32.3101 48.9145L27.7267 42.0484L29.5968 40.7531Z" fill="white"/>
</svg>
