<svg width="362" height="282" viewBox="0 0 362 282" fill="none" xmlns="http://www.w3.org/2000/svg">
<g clip-path="url(#clip0_823_4)">
<path d="M7.18321 189.17C5.76988 189.17 4.54735 188.866 3.51561 188.258C2.48388 187.636 1.68535 186.753 1.12001 185.608C0.568813 184.449 0.293213 183.085 0.293213 181.516C0.293213 179.962 0.568813 178.612 1.12001 177.467C1.68535 176.308 2.48388 175.425 3.51561 174.817C4.54735 174.195 5.76988 173.884 7.18321 173.884C8.13015 173.884 9.02055 174.04 9.85441 174.351C10.7024 174.648 11.4373 175.079 12.0592 175.644C12.2853 175.856 12.3984 176.103 12.3984 176.386C12.3984 176.584 12.3419 176.761 12.2288 176.916C12.1157 177.057 11.9815 177.128 11.826 177.128C11.6564 177.128 11.4515 177.05 11.2112 176.895C10.4904 176.329 9.83321 175.934 9.23961 175.708C8.66015 175.481 7.98881 175.368 7.22561 175.368C5.58615 175.368 4.32121 175.905 3.43081 176.98C2.55455 178.04 2.11641 179.552 2.11641 181.516C2.11641 183.495 2.55455 185.021 3.43081 186.096C4.32121 187.156 5.58615 187.686 7.22561 187.686C7.97468 187.686 8.64601 187.573 9.23961 187.346C9.83321 187.12 10.4904 186.725 11.2112 186.159C11.4515 186.004 11.6564 185.926 11.826 185.926C11.9815 185.926 12.1157 185.997 12.2288 186.138C12.3419 186.279 12.3984 186.456 12.3984 186.668C12.3984 186.951 12.2853 187.198 12.0592 187.41C11.4373 187.975 10.7024 188.413 9.85441 188.724C9.02055 189.021 8.13015 189.17 7.18321 189.17Z" fill="#EEEEEE"/>
<path d="M19.5851 178.421C22.1715 178.421 23.4647 179.778 23.4647 182.492V188.258C23.4647 188.512 23.387 188.717 23.2315 188.873C23.0902 189.028 22.8923 189.106 22.6379 189.106C22.3835 189.106 22.1786 189.028 22.0231 188.873C21.8677 188.717 21.7899 188.512 21.7899 188.258V187.24C21.5214 187.848 21.1115 188.322 20.5603 188.661C20.0091 188.986 19.3731 189.148 18.6523 189.148C17.9881 189.148 17.3733 189.014 16.8079 188.746C16.2567 188.477 15.8186 188.103 15.4935 187.622C15.1685 187.141 15.0059 186.611 15.0059 186.032C15.0059 185.255 15.2038 184.654 15.5995 184.23C15.9953 183.792 16.6454 183.481 17.5499 183.297C18.4545 183.099 19.7123 183 21.3235 183H21.7899V182.301C21.7899 181.453 21.6133 180.831 21.2599 180.435C20.9207 180.039 20.3625 179.842 19.5851 179.842C18.6241 179.842 17.6489 180.103 16.6595 180.626C16.2779 180.866 16.0094 180.986 15.8539 180.986C15.6843 180.986 15.543 180.923 15.4299 180.796C15.3169 180.668 15.2603 180.506 15.2603 180.308C15.2603 180.11 15.3169 179.941 15.4299 179.799C15.5571 179.644 15.755 179.488 16.0235 179.333C16.5182 179.05 17.0765 178.831 17.6983 178.676C18.3343 178.506 18.9633 178.421 19.5851 178.421ZM18.8855 187.792C19.7335 187.792 20.4261 187.509 20.9631 186.944C21.5143 186.364 21.7899 185.622 21.7899 184.718V184.103H21.4083C20.1646 184.103 19.2177 184.159 18.5675 184.272C17.9174 184.371 17.451 184.548 17.1683 184.802C16.8998 185.043 16.7655 185.403 16.7655 185.884C16.7655 186.435 16.9634 186.894 17.3591 187.262C17.769 187.615 18.2778 187.792 18.8855 187.792Z" fill="#EEEEEE"/>
<path d="M32.4379 178.421C34.9113 178.421 36.1479 179.785 36.1479 182.513V188.258C36.1479 188.527 36.0702 188.739 35.9147 188.894C35.7734 189.035 35.5685 189.106 35.2999 189.106C35.0314 189.106 34.8194 189.035 34.6639 188.894C34.5085 188.739 34.4307 188.527 34.4307 188.258V182.619C34.4307 181.658 34.2399 180.958 33.8583 180.52C33.4909 180.082 32.8973 179.863 32.0775 179.863C31.1306 179.863 30.3745 180.153 29.8091 180.732C29.2438 181.311 28.9611 182.096 28.9611 183.085V188.258C28.9611 188.527 28.8834 188.739 28.7279 188.894C28.5866 189.035 28.3817 189.106 28.1131 189.106C27.8446 189.106 27.6326 189.035 27.4771 188.894C27.3217 188.739 27.2439 188.527 27.2439 188.258V179.312C27.2439 179.057 27.3217 178.852 27.4771 178.697C27.6326 178.541 27.8446 178.464 28.1131 178.464C28.3675 178.464 28.5654 178.541 28.7067 178.697C28.8622 178.852 28.9399 179.05 28.9399 179.29V180.372C29.2791 179.736 29.7526 179.255 30.3603 178.93C30.9681 178.591 31.6606 178.421 32.4379 178.421Z" fill="#EEEEEE"/>
<path d="M44.148 178.421C46.7344 178.421 48.0276 179.778 48.0276 182.492V188.258C48.0276 188.512 47.9498 188.717 47.7944 188.873C47.653 189.028 47.4552 189.106 47.2008 189.106C46.9464 189.106 46.7414 189.028 46.586 188.873C46.4305 188.717 46.3528 188.512 46.3528 188.258V187.24C46.0842 187.848 45.6744 188.322 45.1232 188.661C44.572 188.986 43.936 189.148 43.2152 189.148C42.5509 189.148 41.9361 189.014 41.3708 188.746C40.8196 188.477 40.3814 188.103 40.0564 187.622C39.7313 187.141 39.5688 186.611 39.5688 186.032C39.5688 185.255 39.7666 184.654 40.1624 184.23C40.5581 183.792 41.2082 183.481 42.1128 183.297C43.0173 183.099 44.2752 183 45.8864 183H46.3528V182.301C46.3528 181.453 46.1761 180.831 45.8228 180.435C45.4836 180.039 44.9253 179.842 44.148 179.842C43.1869 179.842 42.2117 180.103 41.2224 180.626C40.8408 180.866 40.5722 180.986 40.4168 180.986C40.2472 180.986 40.1058 180.923 39.9928 180.796C39.8797 180.668 39.8232 180.506 39.8232 180.308C39.8232 180.11 39.8797 179.941 39.9928 179.799C40.12 179.644 40.3178 179.488 40.5864 179.333C41.081 179.05 41.6393 178.831 42.2612 178.676C42.8972 178.506 43.5261 178.421 44.148 178.421ZM43.4484 187.792C44.2964 187.792 44.9889 187.509 45.526 186.944C46.0772 186.364 46.3528 185.622 46.3528 184.718V184.103H45.9712C44.7274 184.103 43.7805 184.159 43.1304 184.272C42.4802 184.371 42.0138 184.548 41.7312 184.802C41.4626 185.043 41.3284 185.403 41.3284 185.884C41.3284 186.435 41.5262 186.894 41.922 187.262C42.3318 187.615 42.8406 187.792 43.4484 187.792Z" fill="#EEEEEE"/>
<path d="M60.0964 173.948C60.3649 173.948 60.5769 174.026 60.7324 174.181C60.8878 174.337 60.9656 174.535 60.9656 174.775V188.258C60.9656 188.512 60.8878 188.717 60.7324 188.873C60.5769 189.028 60.3649 189.106 60.0964 189.106C59.8278 189.106 59.6158 189.028 59.4604 188.873C59.319 188.717 59.2484 188.512 59.2484 188.258V187.113C58.9374 187.763 58.4781 188.265 57.8704 188.618C57.2768 188.972 56.5772 189.148 55.7716 189.148C54.867 189.148 54.0685 188.922 53.376 188.47C52.6834 188.018 52.1464 187.389 51.7648 186.583C51.3832 185.763 51.1924 184.817 51.1924 183.742C51.1924 182.682 51.3832 181.75 51.7648 180.944C52.1464 180.138 52.6834 179.517 53.376 179.078C54.0685 178.64 54.867 178.421 55.7716 178.421C56.5772 178.421 57.2768 178.598 57.8704 178.951C58.4781 179.305 58.9374 179.806 59.2484 180.456V174.775C59.2484 174.52 59.319 174.323 59.4604 174.181C59.6158 174.026 59.8278 173.948 60.0964 173.948ZM56.1108 187.728C57.1142 187.728 57.8845 187.389 58.4216 186.71C58.9728 186.018 59.2484 185.043 59.2484 183.785C59.2484 182.527 58.9728 181.559 58.4216 180.88C57.8845 180.202 57.1142 179.863 56.1108 179.863C55.1073 179.863 54.3229 180.202 53.7576 180.88C53.2064 181.559 52.9308 182.513 52.9308 183.742C52.9308 185 53.2064 185.983 53.7576 186.689C54.3229 187.382 55.1073 187.728 56.1108 187.728Z" fill="#EEEEEE"/>
<path d="M69.0008 178.421C71.5872 178.421 72.8804 179.778 72.8804 182.492V188.258C72.8804 188.512 72.8027 188.717 72.6472 188.873C72.5059 189.028 72.308 189.106 72.0536 189.106C71.7992 189.106 71.5943 189.028 71.4388 188.873C71.2834 188.717 71.2056 188.512 71.2056 188.258V187.24C70.9371 187.848 70.5272 188.322 69.976 188.661C69.4248 188.986 68.7888 189.148 68.068 189.148C67.4038 189.148 66.789 189.014 66.2236 188.746C65.6724 188.477 65.2343 188.103 64.9092 187.622C64.5842 187.141 64.4216 186.611 64.4216 186.032C64.4216 185.255 64.6195 184.654 65.0152 184.23C65.411 183.792 66.0611 183.481 66.9656 183.297C67.8702 183.099 69.128 183 70.7392 183H71.2056V182.301C71.2056 181.453 71.029 180.831 70.6756 180.435C70.3364 180.039 69.7782 179.842 69.0008 179.842C68.0398 179.842 67.0646 180.103 66.0752 180.626C65.6936 180.866 65.4251 180.986 65.2696 180.986C65.1 180.986 64.9587 180.923 64.8456 180.796C64.7326 180.668 64.676 180.506 64.676 180.308C64.676 180.11 64.7326 179.941 64.8456 179.799C64.9728 179.644 65.1707 179.488 65.4392 179.333C65.9339 179.05 66.4922 178.831 67.114 178.676C67.75 178.506 68.379 178.421 69.0008 178.421ZM68.3012 187.792C69.1492 187.792 69.8418 187.509 70.3788 186.944C70.93 186.364 71.2056 185.622 71.2056 184.718V184.103H70.824C69.5803 184.103 68.6334 184.159 67.9832 184.272C67.3331 184.371 66.8667 184.548 66.584 184.802C66.3155 185.043 66.1812 185.403 66.1812 185.884C66.1812 186.435 66.3791 186.894 66.7748 187.262C67.1847 187.615 67.6935 187.792 68.3012 187.792Z" fill="#EEEEEE"/>
<path d="M77.0723 173.948C77.4256 173.948 77.7083 174.089 77.9203 174.372C78.1464 174.641 78.2595 175.05 78.2595 175.602C78.2595 176.718 77.8991 177.658 77.1783 178.421C77.0369 178.563 76.8815 178.633 76.7119 178.633C76.5564 178.633 76.4221 178.584 76.3091 178.485C76.196 178.372 76.1395 178.245 76.1395 178.103C76.1395 177.948 76.196 177.813 76.3091 177.7C76.6765 177.333 76.9097 176.867 77.0087 176.301C76.6977 176.273 76.4363 176.153 76.2243 175.941C76.0264 175.729 75.9275 175.46 75.9275 175.135C75.9275 174.782 76.0335 174.499 76.2455 174.287C76.4716 174.061 76.7472 173.948 77.0723 173.948Z" fill="#EEEEEE"/>
<path d="M84.6028 189.148C83.9527 189.148 83.3308 189.071 82.7372 188.915C82.1577 188.76 81.6419 188.541 81.1896 188.258C80.9352 188.088 80.7515 187.933 80.6384 187.792C80.5395 187.636 80.49 187.452 80.49 187.24C80.49 187.057 80.5395 186.908 80.6384 186.795C80.7515 186.668 80.8928 186.604 81.0624 186.604C81.232 186.604 81.4793 186.71 81.8044 186.922C82.2284 187.177 82.6453 187.382 83.0552 187.537C83.4792 187.679 84.0021 187.749 84.624 187.749C85.3872 187.749 85.9808 187.615 86.4048 187.346C86.8288 187.078 87.0408 186.689 87.0408 186.18C87.0408 185.869 86.9631 185.622 86.8076 185.438C86.6521 185.241 86.3836 185.071 86.002 184.93C85.6204 184.774 85.0621 184.619 84.3272 184.463C83.0835 184.195 82.1931 183.834 81.656 183.382C81.1189 182.93 80.8504 182.315 80.8504 181.538C80.8504 180.93 81.02 180.393 81.3592 179.926C81.6984 179.46 82.1648 179.093 82.7584 178.824C83.3661 178.555 84.0516 178.421 84.8148 178.421C85.366 178.421 85.896 178.499 86.4048 178.654C86.9277 178.796 87.3871 179.001 87.7828 179.269C88.2633 179.608 88.5036 179.962 88.5036 180.329C88.5036 180.513 88.4471 180.668 88.334 180.796C88.2209 180.923 88.0867 180.986 87.9312 180.986C87.7616 180.986 87.5072 180.866 87.168 180.626C86.7723 180.372 86.3977 180.174 86.0444 180.032C85.6911 179.891 85.2529 179.82 84.73 179.82C84.0657 179.82 83.5287 179.969 83.1188 180.266C82.7231 180.562 82.5252 180.958 82.5252 181.453C82.5252 181.764 82.5959 182.018 82.7372 182.216C82.8927 182.4 83.14 182.569 83.4792 182.725C83.8325 182.866 84.3343 183.007 84.9844 183.149C85.9455 183.361 86.6875 183.594 87.2104 183.848C87.7475 184.103 88.1291 184.414 88.3552 184.781C88.5813 185.149 88.6944 185.615 88.6944 186.18C88.6944 187.071 88.3199 187.792 87.5708 188.343C86.8217 188.88 85.8324 189.148 84.6028 189.148Z" fill="#EEEEEE"/>
<path d="M103.244 178.421C104.148 178.421 104.947 178.64 105.639 179.078C106.332 179.517 106.869 180.138 107.25 180.944C107.632 181.75 107.823 182.682 107.823 183.742C107.823 184.817 107.632 185.763 107.25 186.583C106.869 187.389 106.332 188.018 105.639 188.47C104.947 188.922 104.148 189.148 103.244 189.148C102.438 189.148 101.731 188.972 101.124 188.618C100.53 188.265 100.078 187.763 99.7668 187.113V188.258C99.7668 188.512 99.689 188.717 99.5336 188.873C99.3922 189.028 99.1873 189.106 98.9188 189.106C98.6502 189.106 98.4382 189.028 98.2828 188.873C98.1273 188.717 98.0496 188.512 98.0496 188.258V174.775C98.0496 174.535 98.1273 174.337 98.2828 174.181C98.4382 174.026 98.6502 173.948 98.9188 173.948C99.1873 173.948 99.3922 174.026 99.5336 174.181C99.689 174.323 99.7668 174.52 99.7668 174.775V180.456C100.078 179.806 100.53 179.305 101.124 178.951C101.731 178.598 102.438 178.421 103.244 178.421ZM102.904 187.728C103.908 187.728 104.685 187.382 105.236 186.689C105.788 185.983 106.063 185 106.063 183.742C106.063 182.513 105.788 181.559 105.236 180.88C104.685 180.202 103.908 179.863 102.904 179.863C101.901 179.863 101.124 180.202 100.572 180.88C100.035 181.559 99.7668 182.527 99.7668 183.785C99.7668 185.043 100.035 186.018 100.572 186.71C101.124 187.389 101.901 187.728 102.904 187.728Z" fill="#EEEEEE"/>
<path d="M111.894 189.106C111.639 189.106 111.427 189.035 111.258 188.894C111.102 188.739 111.025 188.527 111.025 188.258V179.312C111.025 179.043 111.102 178.838 111.258 178.697C111.427 178.541 111.639 178.464 111.894 178.464C112.148 178.464 112.353 178.541 112.509 178.697C112.664 178.838 112.742 179.043 112.742 179.312V188.258C112.742 188.541 112.664 188.753 112.509 188.894C112.353 189.035 112.148 189.106 111.894 189.106ZM111.894 176.238C111.555 176.238 111.279 176.139 111.067 175.941C110.855 175.743 110.749 175.481 110.749 175.156C110.749 174.845 110.855 174.591 111.067 174.393C111.279 174.195 111.555 174.096 111.894 174.096C112.233 174.096 112.509 174.195 112.721 174.393C112.933 174.591 113.039 174.845 113.039 175.156C113.039 175.481 112.933 175.743 112.721 175.941C112.509 176.139 112.233 176.238 111.894 176.238Z" fill="#EEEEEE"/>
<path d="M124.962 178.464C125.231 178.464 125.443 178.541 125.598 178.697C125.753 178.852 125.831 179.057 125.831 179.312V188.3C125.831 189.841 125.435 191 124.644 191.777C123.853 192.569 122.679 192.964 121.125 192.964C119.613 192.964 118.355 192.668 117.351 192.074C116.842 191.791 116.588 191.466 116.588 191.099C116.588 190.901 116.637 190.738 116.736 190.611C116.849 190.484 116.991 190.42 117.16 190.42C117.302 190.42 117.556 190.519 117.924 190.717C118.418 190.972 118.906 191.177 119.386 191.332C119.867 191.487 120.439 191.565 121.104 191.565C122.107 191.565 122.863 191.297 123.372 190.76C123.881 190.237 124.135 189.466 124.135 188.449V186.626C123.838 187.29 123.379 187.799 122.757 188.152C122.149 188.505 121.429 188.682 120.595 188.682C119.69 188.682 118.885 188.47 118.178 188.046C117.485 187.622 116.941 187.021 116.546 186.244C116.164 185.467 115.973 184.569 115.973 183.552C115.973 182.534 116.164 181.637 116.546 180.859C116.941 180.082 117.485 179.481 118.178 179.057C118.885 178.633 119.69 178.421 120.595 178.421C121.415 178.421 122.128 178.598 122.736 178.951C123.344 179.305 123.803 179.806 124.114 180.456V179.312C124.114 179.057 124.185 178.852 124.326 178.697C124.481 178.541 124.693 178.464 124.962 178.464ZM120.934 187.262C121.923 187.262 122.701 186.937 123.266 186.286C123.831 185.622 124.114 184.711 124.114 183.552C124.114 182.407 123.831 181.509 123.266 180.859C122.715 180.195 121.937 179.863 120.934 179.863C119.931 179.863 119.139 180.195 118.56 180.859C117.994 181.509 117.712 182.407 117.712 183.552C117.712 184.711 117.994 185.622 118.56 186.286C119.139 186.937 119.931 187.262 120.934 187.262Z" fill="#EEEEEE"/>
<path d="M138.02 178.464C138.288 178.464 138.5 178.541 138.656 178.697C138.811 178.852 138.889 179.057 138.889 179.312V188.3C138.889 189.841 138.493 191 137.702 191.777C136.91 192.569 135.737 192.964 134.183 192.964C132.67 192.964 131.413 192.668 130.409 192.074C129.9 191.791 129.646 191.466 129.646 191.099C129.646 190.901 129.695 190.738 129.794 190.611C129.907 190.484 130.049 190.42 130.218 190.42C130.36 190.42 130.614 190.519 130.981 190.717C131.476 190.972 131.964 191.177 132.444 191.332C132.925 191.487 133.497 191.565 134.161 191.565C135.165 191.565 135.921 191.297 136.43 190.76C136.939 190.237 137.193 189.466 137.193 188.449V186.626C136.896 187.29 136.437 187.799 135.815 188.152C135.207 188.505 134.487 188.682 133.653 188.682C132.748 188.682 131.943 188.47 131.236 188.046C130.543 187.622 129.999 187.021 129.603 186.244C129.222 185.467 129.031 184.569 129.031 183.552C129.031 182.534 129.222 181.637 129.603 180.859C129.999 180.082 130.543 179.481 131.236 179.057C131.943 178.633 132.748 178.421 133.653 178.421C134.472 178.421 135.186 178.598 135.794 178.951C136.402 179.305 136.861 179.806 137.172 180.456V179.312C137.172 179.057 137.243 178.852 137.384 178.697C137.539 178.541 137.751 178.464 138.02 178.464ZM133.992 187.262C134.981 187.262 135.759 186.937 136.324 186.286C136.889 185.622 137.172 184.711 137.172 183.552C137.172 182.407 136.889 181.509 136.324 180.859C135.773 180.195 134.995 179.863 133.992 179.863C132.988 179.863 132.197 180.195 131.617 180.859C131.052 181.509 130.769 182.407 130.769 183.552C130.769 184.711 131.052 185.622 131.617 186.286C132.197 186.937 132.988 187.262 133.992 187.262Z" fill="#EEEEEE"/>
<path d="M150.696 186.604C150.852 186.604 150.986 186.668 151.099 186.795C151.212 186.922 151.269 187.085 151.269 187.283C151.269 187.636 151.021 187.961 150.527 188.258C150.018 188.555 149.481 188.781 148.915 188.936C148.35 189.078 147.799 189.148 147.262 189.148C145.665 189.148 144.4 188.675 143.467 187.728C142.548 186.781 142.089 185.474 142.089 183.806C142.089 182.746 142.294 181.813 142.704 181.008C143.114 180.188 143.686 179.552 144.421 179.1C145.17 178.647 146.018 178.421 146.965 178.421C148.308 178.421 149.375 178.859 150.166 179.736C150.958 180.612 151.353 181.799 151.353 183.297C151.353 183.58 151.297 183.785 151.184 183.912C151.071 184.039 150.887 184.103 150.633 184.103H143.806C143.933 186.534 145.085 187.749 147.262 187.749C147.813 187.749 148.286 187.679 148.682 187.537C149.078 187.382 149.502 187.177 149.954 186.922C150.322 186.71 150.569 186.604 150.696 186.604ZM146.986 179.757C146.082 179.757 145.354 180.039 144.803 180.605C144.265 181.17 143.947 181.969 143.849 183H149.848C149.82 181.955 149.558 181.156 149.064 180.605C148.569 180.039 147.877 179.757 146.986 179.757Z" fill="#EEEEEE"/>
<path d="M157.996 189.148C157.346 189.148 156.724 189.071 156.131 188.915C155.551 188.76 155.035 188.541 154.583 188.258C154.329 188.088 154.145 187.933 154.032 187.792C153.933 187.636 153.883 187.452 153.883 187.24C153.883 187.057 153.933 186.908 154.032 186.795C154.145 186.668 154.286 186.604 154.456 186.604C154.625 186.604 154.873 186.71 155.198 186.922C155.622 187.177 156.039 187.382 156.449 187.537C156.873 187.679 157.396 187.749 158.017 187.749C158.781 187.749 159.374 187.615 159.798 187.346C160.222 187.078 160.434 186.689 160.434 186.18C160.434 185.869 160.356 185.622 160.201 185.438C160.046 185.241 159.777 185.071 159.395 184.93C159.014 184.774 158.456 184.619 157.721 184.463C156.477 184.195 155.586 183.834 155.049 183.382C154.512 182.93 154.244 182.315 154.244 181.538C154.244 180.93 154.413 180.393 154.753 179.926C155.092 179.46 155.558 179.093 156.152 178.824C156.76 178.555 157.445 178.421 158.208 178.421C158.759 178.421 159.289 178.499 159.798 178.654C160.321 178.796 160.78 179.001 161.176 179.269C161.657 179.608 161.897 179.962 161.897 180.329C161.897 180.513 161.84 180.668 161.727 180.796C161.614 180.923 161.48 180.986 161.325 180.986C161.155 180.986 160.901 180.866 160.561 180.626C160.166 180.372 159.791 180.174 159.438 180.032C159.084 179.891 158.646 179.82 158.123 179.82C157.459 179.82 156.922 179.969 156.512 180.266C156.116 180.562 155.919 180.958 155.919 181.453C155.919 181.764 155.989 182.018 156.131 182.216C156.286 182.4 156.533 182.569 156.873 182.725C157.226 182.866 157.728 183.007 158.378 183.149C159.339 183.361 160.081 183.594 160.604 183.848C161.141 184.103 161.522 184.414 161.749 184.781C161.975 185.149 162.088 185.615 162.088 186.18C162.088 187.071 161.713 187.792 160.964 188.343C160.215 188.88 159.226 189.148 157.996 189.148Z" fill="#EEEEEE"/>
<path d="M170.008 187.749C170.502 187.792 170.75 188.018 170.75 188.428C170.75 188.668 170.658 188.852 170.474 188.979C170.305 189.092 170.043 189.134 169.69 189.106L169.117 189.064C167.987 188.979 167.153 188.64 166.616 188.046C166.079 187.452 165.81 186.555 165.81 185.354V180.032H164.39C164.15 180.032 163.959 179.976 163.817 179.863C163.69 179.736 163.627 179.573 163.627 179.375C163.627 179.163 163.69 178.994 163.817 178.866C163.959 178.739 164.15 178.676 164.39 178.676H165.81V176.28C165.81 176.011 165.888 175.807 166.043 175.665C166.199 175.51 166.411 175.432 166.679 175.432C166.934 175.432 167.139 175.51 167.294 175.665C167.45 175.807 167.527 176.011 167.527 176.28V178.676H169.881C170.107 178.676 170.283 178.739 170.411 178.866C170.552 178.994 170.623 179.163 170.623 179.375C170.623 179.573 170.552 179.736 170.411 179.863C170.283 179.976 170.107 180.032 169.881 180.032H167.527V185.438C167.527 186.216 167.683 186.781 167.994 187.134C168.319 187.474 168.799 187.664 169.435 187.707L170.008 187.749Z" fill="#EEEEEE"/>
<path d="M184.374 178.421C185.279 178.421 186.077 178.647 186.77 179.1C187.462 179.552 187.999 180.188 188.381 181.008C188.763 181.813 188.953 182.753 188.953 183.827C188.953 184.901 188.763 185.841 188.381 186.647C187.999 187.438 187.462 188.053 186.77 188.491C186.091 188.929 185.293 189.148 184.374 189.148C183.569 189.148 182.862 188.972 182.254 188.618C181.661 188.265 181.208 187.763 180.897 187.113V192.095C180.897 192.35 180.82 192.547 180.664 192.689C180.523 192.844 180.318 192.922 180.049 192.922C179.781 192.922 179.569 192.844 179.413 192.689C179.258 192.533 179.18 192.335 179.18 192.095V179.312C179.18 179.057 179.258 178.852 179.413 178.697C179.569 178.541 179.781 178.464 180.049 178.464C180.318 178.464 180.523 178.541 180.664 178.697C180.82 178.852 180.897 179.057 180.897 179.312V180.456C181.208 179.806 181.661 179.305 182.254 178.951C182.862 178.598 183.569 178.421 184.374 178.421ZM184.035 187.728C185.038 187.728 185.816 187.389 186.367 186.71C186.918 186.032 187.194 185.071 187.194 183.827C187.194 182.583 186.918 181.615 186.367 180.923C185.816 180.216 185.038 179.863 184.035 179.863C183.031 179.863 182.254 180.202 181.703 180.88C181.166 181.559 180.897 182.527 180.897 183.785C180.897 185.043 181.166 186.018 181.703 186.71C182.254 187.389 183.031 187.728 184.035 187.728Z" fill="#EEEEEE"/>
<path d="M197.37 178.421C198.586 178.421 199.505 178.767 200.126 179.46C200.748 180.138 201.059 181.156 201.059 182.513V188.258C201.059 188.527 200.981 188.739 200.826 188.894C200.671 189.035 200.466 189.106 200.211 189.106C199.943 189.106 199.731 189.035 199.575 188.894C199.42 188.739 199.342 188.527 199.342 188.258V182.555C199.342 181.637 199.151 180.958 198.77 180.52C198.402 180.082 197.809 179.863 196.989 179.863C196.042 179.863 195.286 180.153 194.72 180.732C194.155 181.311 193.872 182.096 193.872 183.085V188.258C193.872 188.527 193.795 188.739 193.639 188.894C193.498 189.035 193.293 189.106 193.024 189.106C192.756 189.106 192.544 189.035 192.388 188.894C192.233 188.739 192.155 188.527 192.155 188.258V174.775C192.155 174.535 192.233 174.337 192.388 174.181C192.558 174.026 192.77 173.948 193.024 173.948C193.293 173.948 193.498 174.026 193.639 174.181C193.795 174.323 193.872 174.52 193.872 174.775V180.329C194.212 179.707 194.685 179.234 195.293 178.909C195.901 178.584 196.593 178.421 197.37 178.421Z" fill="#EEEEEE"/>
<path d="M209.059 178.421C211.646 178.421 212.939 179.778 212.939 182.492V188.258C212.939 188.512 212.861 188.717 212.706 188.873C212.564 189.028 212.366 189.106 212.112 189.106C211.858 189.106 211.653 189.028 211.497 188.873C211.342 188.717 211.264 188.512 211.264 188.258V187.24C210.995 187.848 210.586 188.322 210.034 188.661C209.483 188.986 208.847 189.148 208.126 189.148C207.462 189.148 206.847 189.014 206.282 188.746C205.731 188.477 205.293 188.103 204.968 187.622C204.643 187.141 204.48 186.611 204.48 186.032C204.48 185.255 204.678 184.654 205.074 184.23C205.469 183.792 206.119 183.481 207.024 183.297C207.929 183.099 209.186 183 210.798 183H211.264V182.301C211.264 181.453 211.087 180.831 210.734 180.435C210.395 180.039 209.837 179.842 209.059 179.842C208.098 179.842 207.123 180.103 206.134 180.626C205.752 180.866 205.484 180.986 205.328 180.986C205.158 180.986 205.017 180.923 204.904 180.796C204.791 180.668 204.734 180.506 204.734 180.308C204.734 180.11 204.791 179.941 204.904 179.799C205.031 179.644 205.229 179.488 205.498 179.333C205.992 179.05 206.551 178.831 207.172 178.676C207.808 178.506 208.437 178.421 209.059 178.421ZM208.36 187.792C209.208 187.792 209.9 187.509 210.437 186.944C210.988 186.364 211.264 185.622 211.264 184.718V184.103H210.882C209.639 184.103 208.692 184.159 208.042 184.272C207.391 184.371 206.925 184.548 206.642 184.802C206.374 185.043 206.24 185.403 206.24 185.884C206.24 186.435 206.437 186.894 206.833 187.262C207.243 187.615 207.752 187.792 208.36 187.792Z" fill="#EEEEEE"/>
<path d="M221.827 178.464C222.421 178.421 222.718 178.661 222.718 179.184C222.718 179.411 222.654 179.594 222.527 179.736C222.4 179.863 222.181 179.941 221.87 179.969L221.234 180.032C220.287 180.117 219.58 180.456 219.114 181.05C218.662 181.629 218.435 182.315 218.435 183.106V188.258C218.435 188.541 218.358 188.753 218.202 188.894C218.047 189.035 217.842 189.106 217.587 189.106C217.333 189.106 217.121 189.035 216.951 188.894C216.796 188.739 216.718 188.527 216.718 188.258V179.312C216.718 179.043 216.803 178.838 216.973 178.697C217.142 178.541 217.347 178.464 217.587 178.464C217.814 178.464 218.004 178.541 218.16 178.697C218.315 178.838 218.393 179.036 218.393 179.29V180.478C218.69 179.856 219.107 179.382 219.644 179.057C220.195 178.732 220.824 178.541 221.531 178.485L221.827 178.464Z" fill="#EEEEEE"/>
<path d="M236.318 178.421C238.608 178.421 239.753 179.785 239.753 182.513V188.258C239.753 188.527 239.675 188.739 239.52 188.894C239.364 189.035 239.159 189.106 238.905 189.106C238.65 189.106 238.438 189.035 238.269 188.894C238.113 188.739 238.036 188.527 238.036 188.258V182.555C238.036 181.608 237.866 180.923 237.527 180.499C237.188 180.075 236.658 179.863 235.937 179.863C235.075 179.863 234.396 180.153 233.902 180.732C233.407 181.311 233.16 182.096 233.16 183.085V188.258C233.16 188.527 233.075 188.739 232.905 188.894C232.75 189.035 232.545 189.106 232.29 189.106C232.036 189.106 231.831 189.035 231.676 188.894C231.52 188.739 231.442 188.527 231.442 188.258V182.555C231.442 181.608 231.273 180.923 230.934 180.499C230.594 180.075 230.057 179.863 229.322 179.863C228.474 179.863 227.796 180.153 227.287 180.732C226.793 181.311 226.545 182.096 226.545 183.085V188.258C226.545 188.527 226.468 188.739 226.312 188.894C226.157 189.035 225.952 189.106 225.697 189.106C225.443 189.106 225.231 189.035 225.061 188.894C224.906 188.739 224.828 188.527 224.828 188.258V179.312C224.828 179.057 224.906 178.852 225.061 178.697C225.231 178.541 225.443 178.464 225.697 178.464C225.938 178.464 226.135 178.541 226.291 178.697C226.446 178.838 226.524 179.036 226.524 179.29V180.308C226.835 179.7 227.266 179.234 227.817 178.909C228.368 178.584 229.004 178.421 229.725 178.421C231.336 178.421 232.389 179.1 232.884 180.456C233.181 179.835 233.633 179.34 234.241 178.972C234.849 178.605 235.541 178.421 236.318 178.421Z" fill="#EEEEEE"/>
<path d="M247.736 178.421C250.322 178.421 251.616 179.778 251.616 182.492V188.258C251.616 188.512 251.538 188.717 251.382 188.873C251.241 189.028 251.043 189.106 250.789 189.106C250.534 189.106 250.329 189.028 250.174 188.873C250.019 188.717 249.941 188.512 249.941 188.258V187.24C249.672 187.848 249.262 188.322 248.711 188.661C248.16 188.986 247.524 189.148 246.803 189.148C246.139 189.148 245.524 189.014 244.959 188.746C244.408 188.477 243.969 188.103 243.644 187.622C243.319 187.141 243.157 186.611 243.157 186.032C243.157 185.255 243.355 184.654 243.75 184.23C244.146 183.792 244.796 183.481 245.701 183.297C246.605 183.099 247.863 183 249.474 183H249.941V182.301C249.941 181.453 249.764 180.831 249.411 180.435C249.072 180.039 248.513 179.842 247.736 179.842C246.775 179.842 245.8 180.103 244.81 180.626C244.429 180.866 244.16 180.986 244.005 180.986C243.835 180.986 243.694 180.923 243.581 180.796C243.468 180.668 243.411 180.506 243.411 180.308C243.411 180.11 243.468 179.941 243.581 179.799C243.708 179.644 243.906 179.488 244.174 179.333C244.669 179.05 245.227 178.831 245.849 178.676C246.485 178.506 247.114 178.421 247.736 178.421ZM247.036 187.792C247.884 187.792 248.577 187.509 249.114 186.944C249.665 186.364 249.941 185.622 249.941 184.718V184.103H249.559C248.315 184.103 247.369 184.159 246.718 184.272C246.068 184.371 245.602 184.548 245.319 184.802C245.051 185.043 244.916 185.403 244.916 185.884C244.916 186.435 245.114 186.894 245.51 187.262C245.92 187.615 246.429 187.792 247.036 187.792Z" fill="#EEEEEE"/>
<path d="M266.712 178.421C267.927 178.421 268.846 178.767 269.468 179.46C270.09 180.138 270.401 181.156 270.401 182.513V188.258C270.401 188.527 270.323 188.739 270.167 188.894C270.012 189.035 269.807 189.106 269.553 189.106C269.284 189.106 269.072 189.035 268.917 188.894C268.761 188.739 268.683 188.527 268.683 188.258V182.555C268.683 181.637 268.493 180.958 268.111 180.52C267.744 180.082 267.15 179.863 266.33 179.863C265.383 179.863 264.627 180.153 264.062 180.732C263.496 181.311 263.214 182.096 263.214 183.085V188.258C263.214 188.527 263.136 188.739 262.981 188.894C262.839 189.035 262.634 189.106 262.366 189.106C262.097 189.106 261.885 189.035 261.73 188.894C261.574 188.739 261.497 188.527 261.497 188.258V174.775C261.497 174.535 261.574 174.337 261.73 174.181C261.899 174.026 262.111 173.948 262.366 173.948C262.634 173.948 262.839 174.026 262.981 174.181C263.136 174.323 263.214 174.52 263.214 174.775V180.329C263.553 179.707 264.026 179.234 264.634 178.909C265.242 178.584 265.934 178.421 266.712 178.421Z" fill="#EEEEEE"/>
<path d="M278.401 178.421C280.987 178.421 282.28 179.778 282.28 182.492V188.258C282.28 188.512 282.202 188.717 282.047 188.873C281.906 189.028 281.708 189.106 281.453 189.106C281.199 189.106 280.994 189.028 280.839 188.873C280.683 188.717 280.605 188.512 280.605 188.258V187.24C280.337 187.848 279.927 188.322 279.376 188.661C278.825 188.986 278.189 189.148 277.468 189.148C276.804 189.148 276.189 189.014 275.623 188.746C275.072 188.477 274.634 188.103 274.309 187.622C273.984 187.141 273.821 186.611 273.821 186.032C273.821 185.255 274.019 184.654 274.415 184.23C274.811 183.792 275.461 183.481 276.365 183.297C277.27 183.099 278.528 183 280.139 183H280.605V182.301C280.605 181.453 280.429 180.831 280.075 180.435C279.736 180.039 279.178 179.842 278.401 179.842C277.44 179.842 276.464 180.103 275.475 180.626C275.093 180.866 274.825 180.986 274.669 180.986C274.5 180.986 274.358 180.923 274.245 180.796C274.132 180.668 274.076 180.506 274.076 180.308C274.076 180.11 274.132 179.941 274.245 179.799C274.373 179.644 274.57 179.488 274.839 179.333C275.334 179.05 275.892 178.831 276.514 178.676C277.15 178.506 277.779 178.421 278.401 178.421ZM277.701 187.792C278.549 187.792 279.242 187.509 279.779 186.944C280.33 186.364 280.605 185.622 280.605 184.718V184.103H280.224C278.98 184.103 278.033 184.159 277.383 184.272C276.733 184.371 276.266 184.548 275.984 184.802C275.715 185.043 275.581 185.403 275.581 185.884C275.581 186.435 275.779 186.894 276.175 187.262C276.584 187.615 277.093 187.792 277.701 187.792Z" fill="#EEEEEE"/>
<path d="M290.321 189.148C289.36 189.148 288.505 188.929 287.756 188.491C287.021 188.053 286.448 187.431 286.038 186.626C285.643 185.82 285.445 184.887 285.445 183.827C285.445 182.767 285.65 181.827 286.06 181.008C286.484 180.188 287.07 179.552 287.819 179.1C288.568 178.647 289.43 178.421 290.406 178.421C290.943 178.421 291.473 178.499 291.996 178.654C292.533 178.796 292.999 179.008 293.395 179.29C293.649 179.46 293.826 179.63 293.925 179.799C294.038 179.955 294.094 180.131 294.094 180.329C294.094 180.527 294.038 180.69 293.925 180.817C293.826 180.944 293.692 181.008 293.522 181.008C293.423 181.008 293.317 180.979 293.204 180.923C293.091 180.866 292.992 180.81 292.907 180.753C292.837 180.697 292.787 180.661 292.759 180.647C292.391 180.407 292.038 180.216 291.699 180.075C291.374 179.933 290.971 179.863 290.49 179.863C289.459 179.863 288.653 180.216 288.074 180.923C287.508 181.615 287.226 182.583 287.226 183.827C287.226 185.071 287.508 186.032 288.074 186.71C288.653 187.389 289.459 187.728 290.49 187.728C290.971 187.728 291.381 187.657 291.72 187.516C292.073 187.375 292.427 187.184 292.78 186.944C292.935 186.845 293.084 186.76 293.225 186.689C293.367 186.619 293.487 186.583 293.586 186.583C293.741 186.583 293.868 186.647 293.967 186.774C294.08 186.901 294.137 187.064 294.137 187.262C294.137 187.445 294.087 187.615 293.988 187.77C293.889 187.912 293.706 188.074 293.437 188.258C293.041 188.527 292.561 188.746 291.996 188.915C291.444 189.071 290.886 189.148 290.321 189.148Z" fill="#EEEEEE"/>
<path d="M305.087 187.643C305.313 187.855 305.426 188.081 305.426 188.322C305.426 188.534 305.348 188.717 305.193 188.873C305.052 189.028 304.875 189.106 304.663 189.106C304.479 189.106 304.288 189.021 304.091 188.852L298.557 184.082V188.258C298.557 188.527 298.473 188.739 298.303 188.894C298.147 189.035 297.95 189.106 297.709 189.106C297.455 189.106 297.243 189.035 297.073 188.894C296.918 188.739 296.84 188.527 296.84 188.258V174.796C296.84 174.527 296.918 174.323 297.073 174.181C297.243 174.026 297.455 173.948 297.709 173.948C297.95 173.948 298.147 174.026 298.303 174.181C298.473 174.323 298.557 174.527 298.557 174.796V183.403L303.624 178.76C303.794 178.591 303.985 178.506 304.197 178.506C304.409 178.506 304.592 178.584 304.748 178.739C304.903 178.895 304.981 179.078 304.981 179.29C304.981 179.531 304.882 179.743 304.684 179.926L300.508 183.658L305.087 187.643Z" fill="#EEEEEE"/>
<path d="M312.212 178.421C314.799 178.421 316.092 179.778 316.092 182.492V188.258C316.092 188.512 316.014 188.717 315.859 188.873C315.717 189.028 315.519 189.106 315.265 189.106C315.011 189.106 314.806 189.028 314.65 188.873C314.495 188.717 314.417 188.512 314.417 188.258V187.24C314.148 187.848 313.739 188.322 313.187 188.661C312.636 188.986 312 189.148 311.279 189.148C310.615 189.148 310 189.014 309.435 188.746C308.884 188.477 308.446 188.103 308.121 187.622C307.795 187.141 307.633 186.611 307.633 186.032C307.633 185.255 307.831 184.654 308.227 184.23C308.622 183.792 309.272 183.481 310.177 183.297C311.081 183.099 312.339 183 313.951 183H314.417V182.301C314.417 181.453 314.24 180.831 313.887 180.435C313.548 180.039 312.989 179.842 312.212 179.842C311.251 179.842 310.276 180.103 309.287 180.626C308.905 180.866 308.636 180.986 308.481 180.986C308.311 180.986 308.17 180.923 308.057 180.796C307.944 180.668 307.887 180.506 307.887 180.308C307.887 180.11 307.944 179.941 308.057 179.799C308.184 179.644 308.382 179.488 308.651 179.333C309.145 179.05 309.703 178.831 310.325 178.676C310.961 178.506 311.59 178.421 312.212 178.421ZM311.513 187.792C312.361 187.792 313.053 187.509 313.59 186.944C314.141 186.364 314.417 185.622 314.417 184.718V184.103H314.035C312.792 184.103 311.845 184.159 311.195 184.272C310.544 184.371 310.078 184.548 309.795 184.802C309.527 185.043 309.393 185.403 309.393 185.884C309.393 186.435 309.59 186.894 309.986 187.262C310.396 187.615 310.905 187.792 311.513 187.792Z" fill="#EEEEEE"/>
<path d="M324.641 187.749C325.136 187.792 325.383 188.018 325.383 188.428C325.383 188.668 325.291 188.852 325.108 188.979C324.938 189.092 324.676 189.134 324.323 189.106L323.751 189.064C322.62 188.979 321.786 188.64 321.249 188.046C320.712 187.452 320.444 186.555 320.444 185.354V180.032H319.023C318.783 180.032 318.592 179.976 318.451 179.863C318.324 179.736 318.26 179.573 318.26 179.375C318.26 179.163 318.324 178.994 318.451 178.866C318.592 178.739 318.783 178.676 319.023 178.676H320.444V176.28C320.444 176.011 320.521 175.807 320.677 175.665C320.832 175.51 321.044 175.432 321.313 175.432C321.567 175.432 321.772 175.51 321.928 175.665C322.083 175.807 322.161 176.011 322.161 176.28V178.676H324.514C324.74 178.676 324.917 178.739 325.044 178.866C325.185 178.994 325.256 179.163 325.256 179.375C325.256 179.573 325.185 179.736 325.044 179.863C324.917 179.976 324.74 180.032 324.514 180.032H322.161V185.438C322.161 186.216 322.316 186.781 322.627 187.134C322.952 187.474 323.433 187.664 324.069 187.707L324.641 187.749Z" fill="#EEEEEE"/>
<path d="M332.927 178.421C334.142 178.421 335.061 178.767 335.683 179.46C336.305 180.138 336.616 181.156 336.616 182.513V188.258C336.616 188.527 336.538 188.739 336.383 188.894C336.227 189.035 336.022 189.106 335.768 189.106C335.499 189.106 335.287 189.035 335.132 188.894C334.976 188.739 334.899 188.527 334.899 188.258V182.555C334.899 181.637 334.708 180.958 334.326 180.52C333.959 180.082 333.365 179.863 332.545 179.863C331.598 179.863 330.842 180.153 330.277 180.732C329.712 181.311 329.429 182.096 329.429 183.085V188.258C329.429 188.527 329.351 188.739 329.196 188.894C329.054 189.035 328.85 189.106 328.581 189.106C328.312 189.106 328.1 189.035 327.945 188.894C327.79 188.739 327.712 188.527 327.712 188.258V174.775C327.712 174.535 327.79 174.337 327.945 174.181C328.115 174.026 328.327 173.948 328.581 173.948C328.85 173.948 329.054 174.026 329.196 174.181C329.351 174.323 329.429 174.52 329.429 174.775V180.329C329.768 179.707 330.242 179.234 330.849 178.909C331.457 178.584 332.15 178.421 332.927 178.421Z" fill="#EEEEEE"/>
<path d="M344.679 189.148C343.704 189.148 342.842 188.929 342.093 188.491C341.358 188.053 340.786 187.431 340.376 186.626C339.98 185.806 339.782 184.859 339.782 183.785C339.782 182.711 339.98 181.771 340.376 180.965C340.786 180.145 341.358 179.517 342.093 179.078C342.842 178.64 343.704 178.421 344.679 178.421C345.655 178.421 346.517 178.64 347.266 179.078C348.015 179.517 348.587 180.145 348.983 180.965C349.393 181.771 349.598 182.711 349.598 183.785C349.598 184.859 349.393 185.806 348.983 186.626C348.587 187.431 348.015 188.053 347.266 188.491C346.517 188.929 345.655 189.148 344.679 189.148ZM344.679 187.728C345.697 187.728 346.474 187.396 347.011 186.732C347.563 186.053 347.838 185.071 347.838 183.785C347.838 182.527 347.563 181.559 347.011 180.88C346.46 180.188 345.683 179.842 344.679 179.842C343.676 179.842 342.899 180.188 342.347 180.88C341.796 181.559 341.521 182.527 341.521 183.785C341.521 185.057 341.789 186.032 342.326 186.71C342.877 187.389 343.662 187.728 344.679 187.728Z" fill="#EEEEEE"/>
<path d="M357.986 178.421C360.46 178.421 361.696 179.785 361.696 182.513V188.258C361.696 188.527 361.619 188.739 361.463 188.894C361.322 189.035 361.117 189.106 360.848 189.106C360.58 189.106 360.368 189.035 360.212 188.894C360.057 188.739 359.979 188.527 359.979 188.258V182.619C359.979 181.658 359.788 180.958 359.407 180.52C359.039 180.082 358.446 179.863 357.626 179.863C356.679 179.863 355.923 180.153 355.358 180.732C354.792 181.311 354.51 182.096 354.51 183.085V188.258C354.51 188.527 354.432 188.739 354.276 188.894C354.135 189.035 353.93 189.106 353.662 189.106C353.393 189.106 353.181 189.035 353.026 188.894C352.87 188.739 352.792 188.527 352.792 188.258V179.312C352.792 179.057 352.87 178.852 353.026 178.697C353.181 178.541 353.393 178.464 353.662 178.464C353.916 178.464 354.114 178.541 354.255 178.697C354.411 178.852 354.488 179.05 354.488 179.29V180.372C354.828 179.736 355.301 179.255 355.909 178.93C356.517 178.591 357.209 178.421 357.986 178.421Z" fill="#EEEEEE"/>
<g opacity="0.15">
<path fill-rule="evenodd" clip-rule="evenodd" d="M257.476 230C261.614 230 265 233.408 265 237.632C265 241.808 261.191 248.144 258.229 251.312C257.806 251.744 257.147 251.744 256.771 251.312C253.809 248.144 250 241.808 250 237.632C250 233.408 253.339 230 257.476 230ZM257.476 233.264C259.875 233.264 261.755 235.232 261.755 237.632C261.755 240.08 259.875 242 257.476 242C255.125 242 253.197 240.08 253.197 237.632C253.197 235.232 255.125 233.264 257.476 233.264Z" fill="#EEEEEE"/>
</g>
<path d="M186.132 263.607H184.328V262.705C184.328 262.466 184.233 262.237 184.064 262.067C183.895 261.898 183.666 261.803 183.427 261.803C183.188 261.803 182.958 261.898 182.789 262.067C182.62 262.237 182.525 262.466 182.525 262.705V263.607H177.115V262.705C177.115 262.466 177.02 262.237 176.851 262.067C176.682 261.898 176.452 261.803 176.213 261.803C175.974 261.803 175.745 261.898 175.576 262.067C175.407 262.237 175.312 262.466 175.312 262.705V263.607H173.508C172.791 263.607 172.103 263.892 171.596 264.399C171.088 264.906 170.803 265.594 170.803 266.312V277.132C170.803 277.849 171.088 278.537 171.596 279.044C172.103 279.552 172.791 279.837 173.508 279.837H186.132C186.849 279.837 187.537 279.552 188.044 279.044C188.552 278.537 188.837 277.849 188.837 277.132V266.312C188.837 265.594 188.552 264.906 188.044 264.399C187.537 263.892 186.849 263.607 186.132 263.607ZM187.033 277.132C187.033 277.371 186.938 277.6 186.769 277.769C186.6 277.938 186.371 278.033 186.132 278.033H173.508C173.269 278.033 173.04 277.938 172.871 277.769C172.702 277.6 172.607 277.371 172.607 277.132V270.82H187.033V277.132ZM187.033 269.017H172.607V266.312C172.607 266.073 172.702 265.843 172.871 265.674C173.04 265.505 173.269 265.41 173.508 265.41H175.312V266.312C175.312 266.551 175.407 266.78 175.576 266.949C175.745 267.118 175.974 267.213 176.213 267.213C176.452 267.213 176.682 267.118 176.851 266.949C177.02 266.78 177.115 266.551 177.115 266.312V265.41H182.525V266.312C182.525 266.551 182.62 266.78 182.789 266.949C182.958 267.118 183.188 267.213 183.427 267.213C183.666 267.213 183.895 267.118 184.064 266.949C184.233 266.78 184.328 266.551 184.328 266.312V265.41H186.132C186.371 265.41 186.6 265.505 186.769 265.674C186.938 265.843 187.033 266.073 187.033 266.312V269.017Z" fill="#EEEEEE" fill-opacity="0.3"/>
<path d="M1.938 247V235.1H2.975L8.415 244.382H7.871L13.26 235.1H14.297V247H13.09V236.987H13.379L8.415 245.487H7.82L2.822 236.987H3.145V247H1.938ZM22.1353 247.085C21.2513 247.085 20.458 246.892 19.7553 246.507C19.064 246.11 18.52 245.572 18.1233 244.892C17.7267 244.201 17.5283 243.413 17.5283 242.529C17.5283 241.634 17.7267 240.846 18.1233 240.166C18.52 239.486 19.064 238.953 19.7553 238.568C20.458 238.183 21.2513 237.99 22.1353 237.99C22.8947 237.99 23.5803 238.137 24.1923 238.432C24.8043 238.727 25.286 239.169 25.6373 239.758L24.7363 240.37C24.4303 239.917 24.0507 239.582 23.5973 239.367C23.144 239.152 22.651 239.044 22.1183 239.044C21.4837 239.044 20.9113 239.191 20.4013 239.486C19.8913 239.769 19.489 240.172 19.1943 240.693C18.8997 241.214 18.7523 241.826 18.7523 242.529C18.7523 243.232 18.8997 243.844 19.1943 244.365C19.489 244.886 19.8913 245.294 20.4013 245.589C20.9113 245.872 21.4837 246.014 22.1183 246.014C22.651 246.014 23.144 245.906 23.5973 245.691C24.0507 245.476 24.4303 245.147 24.7363 244.705L25.6373 245.317C25.286 245.895 24.8043 246.337 24.1923 246.643C23.5803 246.938 22.8947 247.085 22.1353 247.085ZM33.9924 247.102C33.0858 247.102 32.2471 246.955 31.4764 246.66C30.7171 246.354 30.0541 245.929 29.4874 245.385C28.9321 244.841 28.4958 244.201 28.1784 243.464C27.8724 242.727 27.7194 241.923 27.7194 241.05C27.7194 240.177 27.8724 239.373 28.1784 238.636C28.4958 237.899 28.9378 237.259 29.5044 236.715C30.0711 236.171 30.7341 235.752 31.4934 235.457C32.2641 235.151 33.1028 234.998 34.0094 234.998C34.9161 234.998 35.7434 235.14 36.4914 235.423C37.2508 235.706 37.8968 236.137 38.4294 236.715L37.6474 237.514C37.1488 237.015 36.5991 236.658 35.9984 236.443C35.3978 236.228 34.7518 236.12 34.0604 236.12C33.3238 236.12 32.6438 236.245 32.0204 236.494C31.4084 236.732 30.8701 237.078 30.4054 237.531C29.9521 237.973 29.5951 238.494 29.3344 239.095C29.0851 239.684 28.9604 240.336 28.9604 241.05C28.9604 241.753 29.0851 242.404 29.3344 243.005C29.5951 243.606 29.9521 244.133 30.4054 244.586C30.8701 245.028 31.4084 245.374 32.0204 245.623C32.6438 245.861 33.3181 245.98 34.0434 245.98C34.7234 245.98 35.3638 245.878 35.9644 245.674C36.5764 245.47 37.1374 245.124 37.6474 244.637L38.3614 245.589C37.7948 246.088 37.1318 246.467 36.3724 246.728C35.6131 246.977 34.8198 247.102 33.9924 247.102ZM37.1544 245.436V241.05H38.3614V245.589L37.1544 245.436ZM42.1769 247V238.075H43.3839V247H42.1769ZM42.7889 236.103C42.5395 236.103 42.3299 236.018 42.1599 235.848C41.9899 235.678 41.9049 235.474 41.9049 235.236C41.9049 234.998 41.9899 234.8 42.1599 234.641C42.3299 234.471 42.5395 234.386 42.7889 234.386C43.0382 234.386 43.2479 234.465 43.4179 234.624C43.5879 234.783 43.6729 234.981 43.6729 235.219C43.6729 235.468 43.5879 235.678 43.4179 235.848C43.2592 236.018 43.0495 236.103 42.7889 236.103ZM47.2523 247V234.386H48.4593V247H47.2523ZM52.3277 247V234.386H53.5347V247H52.3277ZM67.4114 247.102C65.8927 247.102 64.697 246.666 63.8244 245.793C62.9517 244.92 62.5154 243.628 62.5154 241.917V235.1H63.7734V241.866C63.7734 243.271 64.0907 244.308 64.7254 244.977C65.36 245.646 66.2554 245.98 67.4114 245.98C68.5787 245.98 69.4797 245.646 70.1144 244.977C70.749 244.308 71.0664 243.271 71.0664 241.866V235.1H72.2904V241.917C72.2904 243.628 71.854 244.92 70.9814 245.793C70.12 246.666 68.93 247.102 67.4114 247.102ZM80.8922 237.99C81.6176 237.99 82.2522 238.132 82.7962 238.415C83.3516 238.687 83.7822 239.106 84.0882 239.673C84.4056 240.24 84.5642 240.954 84.5642 241.815V247H83.3572V241.934C83.3572 240.993 83.1192 240.285 82.6432 239.809C82.1786 239.322 81.5212 239.078 80.6712 239.078C80.0366 239.078 79.4812 239.208 79.0052 239.469C78.5406 239.718 78.1779 240.087 77.9172 240.574C77.6679 241.05 77.5432 241.628 77.5432 242.308V247H76.3362V238.075H77.4922V240.523L77.3052 240.064C77.5886 239.418 78.0419 238.914 78.6652 238.551C79.2886 238.177 80.0309 237.99 80.8922 237.99ZM88.3345 247V238.075H89.5415V247H88.3345ZM88.9465 236.103C88.6972 236.103 88.4875 236.018 88.3175 235.848C88.1475 235.678 88.0625 235.474 88.0625 235.236C88.0625 234.998 88.1475 234.8 88.3175 234.641C88.4875 234.471 88.6972 234.386 88.9465 234.386C89.1959 234.386 89.4055 234.465 89.5755 234.624C89.7455 234.783 89.8305 234.981 89.8305 235.219C89.8305 235.468 89.7455 235.678 89.5755 235.848C89.4169 236.018 89.2072 236.103 88.9465 236.103ZM95.705 247L91.744 238.075H93.002L96.64 246.354H96.045L99.734 238.075H100.924L96.946 247H95.705ZM106.676 247.085C105.746 247.085 104.93 246.892 104.228 246.507C103.525 246.11 102.975 245.572 102.579 244.892C102.182 244.201 101.984 243.413 101.984 242.529C101.984 241.645 102.171 240.863 102.545 240.183C102.93 239.503 103.451 238.97 104.109 238.585C104.777 238.188 105.525 237.99 106.353 237.99C107.191 237.99 107.934 238.183 108.58 238.568C109.237 238.942 109.753 239.475 110.127 240.166C110.501 240.846 110.688 241.634 110.688 242.529C110.688 242.586 110.682 242.648 110.671 242.716C110.671 242.773 110.671 242.835 110.671 242.903H102.902V242.002H110.025L109.549 242.359C109.549 241.713 109.407 241.141 109.124 240.642C108.852 240.132 108.478 239.735 108.002 239.452C107.526 239.169 106.976 239.027 106.353 239.027C105.741 239.027 105.191 239.169 104.704 239.452C104.216 239.735 103.837 240.132 103.565 240.642C103.293 241.152 103.157 241.736 103.157 242.393V242.58C103.157 243.26 103.304 243.861 103.599 244.382C103.905 244.892 104.324 245.294 104.857 245.589C105.401 245.872 106.018 246.014 106.71 246.014C107.254 246.014 107.758 245.918 108.223 245.725C108.699 245.532 109.107 245.238 109.447 244.841L110.127 245.623C109.73 246.099 109.231 246.462 108.631 246.711C108.041 246.96 107.39 247.085 106.676 247.085ZM113.655 247V238.075H114.811V240.506L114.692 240.081C114.941 239.401 115.36 238.885 115.95 238.534C116.539 238.171 117.27 237.99 118.143 237.99V239.163C118.097 239.163 118.052 239.163 118.007 239.163C117.961 239.152 117.916 239.146 117.871 239.146C116.93 239.146 116.193 239.435 115.661 240.013C115.128 240.58 114.862 241.39 114.862 242.444V247H113.655ZM123.352 247.085C122.615 247.085 121.918 246.983 121.261 246.779C120.603 246.564 120.088 246.297 119.714 245.98L120.258 245.028C120.62 245.3 121.085 245.538 121.652 245.742C122.218 245.935 122.813 246.031 123.437 246.031C124.287 246.031 124.899 245.901 125.273 245.64C125.647 245.368 125.834 245.011 125.834 244.569C125.834 244.24 125.726 243.985 125.511 243.804C125.307 243.611 125.035 243.47 124.695 243.379C124.355 243.277 123.975 243.192 123.556 243.124C123.136 243.056 122.717 242.977 122.298 242.886C121.89 242.795 121.516 242.665 121.176 242.495C120.836 242.314 120.558 242.07 120.343 241.764C120.139 241.458 120.037 241.05 120.037 240.54C120.037 240.053 120.173 239.616 120.445 239.231C120.717 238.846 121.113 238.545 121.635 238.33C122.167 238.103 122.813 237.99 123.573 237.99C124.151 237.99 124.729 238.069 125.307 238.228C125.885 238.375 126.361 238.574 126.735 238.823L126.208 239.792C125.811 239.52 125.386 239.327 124.933 239.214C124.479 239.089 124.026 239.027 123.573 239.027C122.768 239.027 122.173 239.169 121.788 239.452C121.414 239.724 121.227 240.075 121.227 240.506C121.227 240.846 121.329 241.112 121.533 241.305C121.748 241.498 122.026 241.651 122.366 241.764C122.717 241.866 123.097 241.951 123.505 242.019C123.924 242.087 124.338 242.172 124.746 242.274C125.165 242.365 125.545 242.495 125.885 242.665C126.236 242.824 126.514 243.056 126.718 243.362C126.933 243.657 127.041 244.048 127.041 244.535C127.041 245.056 126.893 245.51 126.599 245.895C126.315 246.269 125.896 246.564 125.341 246.779C124.797 246.983 124.134 247.085 123.352 247.085ZM129.765 247V238.075H130.972V247H129.765ZM130.377 236.103C130.128 236.103 129.918 236.018 129.748 235.848C129.578 235.678 129.493 235.474 129.493 235.236C129.493 234.998 129.578 234.8 129.748 234.641C129.918 234.471 130.128 234.386 130.377 234.386C130.627 234.386 130.836 234.465 131.006 234.624C131.176 234.783 131.261 234.981 131.261 235.219C131.261 235.468 131.176 235.678 131.006 235.848C130.848 236.018 130.638 236.103 130.377 236.103ZM137.663 247.085C136.824 247.085 136.178 246.858 135.725 246.405C135.271 245.952 135.045 245.311 135.045 244.484V236.103H136.252V244.416C136.252 244.937 136.382 245.34 136.643 245.623C136.915 245.906 137.3 246.048 137.799 246.048C138.331 246.048 138.773 245.895 139.125 245.589L139.55 246.456C139.312 246.671 139.023 246.83 138.683 246.932C138.354 247.034 138.014 247.085 137.663 247.085ZM133.447 239.078V238.075H138.972V239.078H133.447ZM142.159 250.383C141.74 250.383 141.337 250.315 140.952 250.179C140.578 250.043 140.255 249.839 139.983 249.567L140.544 248.666C140.771 248.881 141.014 249.046 141.275 249.159C141.547 249.284 141.847 249.346 142.176 249.346C142.573 249.346 142.913 249.233 143.196 249.006C143.491 248.791 143.768 248.405 144.029 247.85L144.607 246.541L144.743 246.354L148.415 238.075H149.605L145.134 248.071C144.885 248.649 144.607 249.108 144.301 249.448C144.006 249.788 143.683 250.026 143.332 250.162C142.981 250.309 142.59 250.383 142.159 250.383ZM144.539 247.255L140.425 238.075H141.683L145.321 246.269L144.539 247.255ZM150.503 249.482L151.251 246.337L151.387 247.068C151.126 247.068 150.905 246.983 150.724 246.813C150.554 246.643 150.469 246.422 150.469 246.15C150.469 245.878 150.554 245.657 150.724 245.487C150.905 245.317 151.121 245.232 151.37 245.232C151.631 245.232 151.84 245.323 151.999 245.504C152.169 245.685 152.254 245.901 152.254 246.15C152.254 246.241 152.248 246.331 152.237 246.422C152.226 246.513 152.203 246.615 152.169 246.728C152.135 246.841 152.09 246.977 152.033 247.136L151.319 249.482H150.503ZM160.561 247V235.1H161.598L167.038 244.382H166.494L171.883 235.1H172.92V247H171.713V236.987H172.002L167.038 245.487H166.443L161.445 236.987H161.768V247H160.561ZM180.69 247.085C179.829 247.085 179.052 246.892 178.361 246.507C177.681 246.11 177.143 245.572 176.746 244.892C176.349 244.201 176.151 243.413 176.151 242.529C176.151 241.634 176.349 240.846 176.746 240.166C177.143 239.486 177.681 238.953 178.361 238.568C179.041 238.183 179.817 237.99 180.69 237.99C181.574 237.99 182.356 238.183 183.036 238.568C183.727 238.953 184.266 239.486 184.651 240.166C185.048 240.846 185.246 241.634 185.246 242.529C185.246 243.413 185.048 244.201 184.651 244.892C184.266 245.572 183.727 246.11 183.036 246.507C182.345 246.892 181.563 247.085 180.69 247.085ZM180.69 246.014C181.336 246.014 181.908 245.872 182.407 245.589C182.906 245.294 183.297 244.886 183.58 244.365C183.875 243.832 184.022 243.22 184.022 242.529C184.022 241.826 183.875 241.214 183.58 240.693C183.297 240.172 182.906 239.769 182.407 239.486C181.908 239.191 181.342 239.044 180.707 239.044C180.072 239.044 179.506 239.191 179.007 239.486C178.508 239.769 178.112 240.172 177.817 240.693C177.522 241.214 177.375 241.826 177.375 242.529C177.375 243.22 177.522 243.832 177.817 244.365C178.112 244.886 178.508 245.294 179.007 245.589C179.506 245.872 180.067 246.014 180.69 246.014ZM192.776 237.99C193.501 237.99 194.136 238.132 194.68 238.415C195.235 238.687 195.666 239.106 195.972 239.673C196.289 240.24 196.448 240.954 196.448 241.815V247H195.241V241.934C195.241 240.993 195.003 240.285 194.527 239.809C194.062 239.322 193.405 239.078 192.555 239.078C191.92 239.078 191.365 239.208 190.889 239.469C190.424 239.718 190.062 240.087 189.801 240.574C189.552 241.05 189.427 241.628 189.427 242.308V247H188.22V238.075H189.376V240.523L189.189 240.064C189.472 239.418 189.926 238.914 190.549 238.551C191.172 238.177 191.915 237.99 192.776 237.99ZM203.04 247.085C202.202 247.085 201.556 246.858 201.102 246.405C200.649 245.952 200.422 245.311 200.422 244.484V236.103H201.629V244.416C201.629 244.937 201.76 245.34 202.02 245.623C202.292 245.906 202.678 246.048 203.176 246.048C203.709 246.048 204.151 245.895 204.502 245.589L204.927 246.456C204.689 246.671 204.4 246.83 204.06 246.932C203.732 247.034 203.392 247.085 203.04 247.085ZM198.824 239.078V238.075H204.349V239.078H198.824ZM207.635 247V238.075H208.791V240.506L208.672 240.081C208.921 239.401 209.34 238.885 209.93 238.534C210.519 238.171 211.25 237.99 212.123 237.99V239.163C212.077 239.163 212.032 239.163 211.987 239.163C211.941 239.152 211.896 239.146 211.851 239.146C210.91 239.146 210.173 239.435 209.641 240.013C209.108 240.58 208.842 241.39 208.842 242.444V247H207.635ZM218.543 247.085C217.614 247.085 216.798 246.892 216.095 246.507C215.392 246.11 214.843 245.572 214.446 244.892C214.049 244.201 213.851 243.413 213.851 242.529C213.851 241.645 214.038 240.863 214.412 240.183C214.797 239.503 215.319 238.97 215.976 238.585C216.645 238.188 217.393 237.99 218.22 237.99C219.059 237.99 219.801 238.183 220.447 238.568C221.104 238.942 221.62 239.475 221.994 240.166C222.368 240.846 222.555 241.634 222.555 242.529C222.555 242.586 222.549 242.648 222.538 242.716C222.538 242.773 222.538 242.835 222.538 242.903H214.769V242.002H221.892L221.416 242.359C221.416 241.713 221.274 241.141 220.991 240.642C220.719 240.132 220.345 239.735 219.869 239.452C219.393 239.169 218.843 239.027 218.22 239.027C217.608 239.027 217.058 239.169 216.571 239.452C216.084 239.735 215.704 240.132 215.432 240.642C215.16 241.152 215.024 241.736 215.024 242.393V242.58C215.024 243.26 215.171 243.861 215.466 244.382C215.772 244.892 216.191 245.294 216.724 245.589C217.268 245.872 217.886 246.014 218.577 246.014C219.121 246.014 219.625 245.918 220.09 245.725C220.566 245.532 220.974 245.238 221.314 244.841L221.994 245.623C221.597 246.099 221.099 246.462 220.498 246.711C219.909 246.96 219.257 247.085 218.543 247.085ZM230.866 247V245.028L230.815 244.705V241.407C230.815 240.648 230.6 240.064 230.169 239.656C229.75 239.248 229.121 239.044 228.282 239.044C227.704 239.044 227.154 239.14 226.633 239.333C226.112 239.526 225.67 239.781 225.307 240.098L224.763 239.197C225.216 238.812 225.76 238.517 226.395 238.313C227.03 238.098 227.698 237.99 228.401 237.99C229.557 237.99 230.447 238.279 231.07 238.857C231.705 239.424 232.022 240.291 232.022 241.458V247H230.866ZM227.789 247.085C227.12 247.085 226.537 246.977 226.038 246.762C225.551 246.535 225.177 246.229 224.916 245.844C224.655 245.447 224.525 244.994 224.525 244.484C224.525 244.019 224.633 243.6 224.848 243.226C225.075 242.841 225.437 242.535 225.936 242.308C226.446 242.07 227.126 241.951 227.976 241.951H231.053V242.852H228.01C227.149 242.852 226.548 243.005 226.208 243.311C225.879 243.617 225.715 243.997 225.715 244.45C225.715 244.96 225.913 245.368 226.31 245.674C226.707 245.98 227.262 246.133 227.976 246.133C228.656 246.133 229.24 245.98 229.727 245.674C230.226 245.357 230.588 244.903 230.815 244.314L231.087 245.147C230.86 245.736 230.464 246.207 229.897 246.558C229.342 246.909 228.639 247.085 227.789 247.085ZM235.81 247V234.386H237.017V247H235.81Z" fill="#EEEEEE" fill-opacity="0.3"/>
<path d="M-0.0619999 277V265.1H0.975L6.415 274.382H5.871L11.26 265.1H12.297V277H11.09V266.987H11.379L6.415 275.487H5.82L0.822 266.987H1.145V277H-0.0619999ZM22.0223 277V275.028L21.9713 274.705V271.407C21.9713 270.648 21.756 270.064 21.3253 269.656C20.906 269.248 20.277 269.044 19.4383 269.044C18.8603 269.044 18.3107 269.14 17.7893 269.333C17.268 269.526 16.826 269.781 16.4633 270.098L15.9193 269.197C16.3727 268.812 16.9167 268.517 17.5513 268.313C18.186 268.098 18.8547 267.99 19.5573 267.99C20.7133 267.99 21.603 268.279 22.2263 268.857C22.861 269.424 23.1783 270.291 23.1783 271.458V277H22.0223ZM18.9453 277.085C18.2767 277.085 17.693 276.977 17.1943 276.762C16.707 276.535 16.333 276.229 16.0723 275.844C15.8117 275.447 15.6813 274.994 15.6813 274.484C15.6813 274.019 15.789 273.6 16.0043 273.226C16.231 272.841 16.5937 272.535 17.0923 272.308C17.6023 272.07 18.2823 271.951 19.1323 271.951H22.2093V272.852H19.1663C18.305 272.852 17.7043 273.005 17.3643 273.311C17.0357 273.617 16.8713 273.997 16.8713 274.45C16.8713 274.96 17.0697 275.368 17.4663 275.674C17.863 275.98 18.4183 276.133 19.1323 276.133C19.8123 276.133 20.396 275.98 20.8833 275.674C21.382 275.357 21.7447 274.903 21.9713 274.314L22.2433 275.147C22.0167 275.736 21.62 276.207 21.0533 276.558C20.498 276.909 19.7953 277.085 18.9453 277.085ZM26.9667 277V268.075H28.1227V270.506L28.0037 270.081C28.253 269.401 28.6723 268.885 29.2617 268.534C29.851 268.171 30.582 267.99 31.4547 267.99V269.163C31.4093 269.163 31.364 269.163 31.3187 269.163C31.2733 269.152 31.228 269.146 31.1827 269.146C30.242 269.146 29.5053 269.435 28.9727 270.013C28.44 270.58 28.1737 271.39 28.1737 272.444V277H26.9667ZM37.7901 277.085C36.9061 277.085 36.1128 276.892 35.4101 276.507C34.7188 276.11 34.1748 275.572 33.7781 274.892C33.3814 274.201 33.1831 273.413 33.1831 272.529C33.1831 271.634 33.3814 270.846 33.7781 270.166C34.1748 269.486 34.7188 268.953 35.4101 268.568C36.1128 268.183 36.9061 267.99 37.7901 267.99C38.5494 267.99 39.2351 268.137 39.8471 268.432C40.4591 268.727 40.9408 269.169 41.2921 269.758L40.3911 270.37C40.0851 269.917 39.7054 269.582 39.2521 269.367C38.7988 269.152 38.3058 269.044 37.7731 269.044C37.1384 269.044 36.5661 269.191 36.0561 269.486C35.5461 269.769 35.1438 270.172 34.8491 270.693C34.5544 271.214 34.4071 271.826 34.4071 272.529C34.4071 273.232 34.5544 273.844 34.8491 274.365C35.1438 274.886 35.5461 275.294 36.0561 275.589C36.5661 275.872 37.1384 276.014 37.7731 276.014C38.3058 276.014 38.7988 275.906 39.2521 275.691C39.7054 275.476 40.0851 275.147 40.3911 274.705L41.2921 275.317C40.9408 275.895 40.4591 276.337 39.8471 276.643C39.2351 276.938 38.5494 277.085 37.7901 277.085ZM48.5964 267.99C49.3217 267.99 49.9564 268.132 50.5004 268.415C51.0557 268.687 51.4864 269.106 51.7924 269.673C52.1097 270.24 52.2684 270.954 52.2684 271.815V277H51.0614V271.934C51.0614 270.993 50.8234 270.285 50.3474 269.809C49.8827 269.322 49.2254 269.078 48.3754 269.078C47.7407 269.078 47.1854 269.208 46.7094 269.469C46.2447 269.718 45.8821 270.087 45.6214 270.574C45.3721 271.05 45.2474 271.628 45.2474 272.308V277H44.0404V264.386H45.2474V270.523L45.0094 270.064C45.2927 269.418 45.7461 268.914 46.3694 268.551C46.9927 268.177 47.7351 267.99 48.5964 267.99ZM59.9779 277V276.133L64.9249 271.288C65.3782 270.846 65.7182 270.461 65.9449 270.132C66.1716 269.792 66.3246 269.475 66.4039 269.18C66.4832 268.885 66.5229 268.608 66.5229 268.347C66.5229 267.656 66.2849 267.112 65.8089 266.715C65.3442 266.318 64.6529 266.12 63.7349 266.12C63.0322 266.12 62.4089 266.228 61.8649 266.443C61.3322 266.658 60.8732 266.993 60.4879 267.446L59.6209 266.698C60.0856 266.154 60.6806 265.735 61.4059 265.44C62.1312 265.145 62.9416 264.998 63.8369 264.998C64.6416 264.998 65.3386 265.128 65.9279 265.389C66.5172 265.638 66.9706 266.007 67.2879 266.494C67.6166 266.981 67.7809 267.554 67.7809 268.211C67.7809 268.596 67.7242 268.976 67.6109 269.35C67.5089 269.724 67.3162 270.121 67.0329 270.54C66.7609 270.948 66.3586 271.413 65.8259 271.934L61.2869 276.388L60.9469 275.912H68.3249V277H59.9779ZM74.128 277.102C73.278 277.102 72.4677 276.966 71.697 276.694C70.9263 276.411 70.3143 276.037 69.861 275.572L70.456 274.603C70.83 275 71.34 275.328 71.986 275.589C72.6433 275.85 73.3517 275.98 74.111 275.98C75.1197 275.98 75.8847 275.759 76.406 275.317C76.9387 274.864 77.205 274.274 77.205 273.549C77.205 273.039 77.0803 272.603 76.831 272.24C76.593 271.866 76.185 271.577 75.607 271.373C75.029 271.169 74.2357 271.067 73.227 271.067H70.694L71.306 265.1H77.817V266.188H71.799L72.428 265.593L71.901 270.591L71.272 269.979H73.499C74.7003 269.979 75.6637 270.126 76.389 270.421C77.1143 270.716 77.6357 271.129 77.953 271.662C78.2817 272.183 78.446 272.795 78.446 273.498C78.446 274.167 78.2873 274.779 77.97 275.334C77.6527 275.878 77.1767 276.309 76.542 276.626C75.9073 276.943 75.1027 277.102 74.128 277.102ZM80.6459 272.92V271.866H85.0999V272.92H80.6459ZM87.0909 277V276.133L92.0379 271.288C92.4912 270.846 92.8312 270.461 93.0579 270.132C93.2846 269.792 93.4376 269.475 93.5169 269.18C93.5962 268.885 93.6359 268.608 93.6359 268.347C93.6359 267.656 93.3979 267.112 92.9219 266.715C92.4572 266.318 91.7659 266.12 90.8479 266.12C90.1452 266.12 89.5219 266.228 88.9779 266.443C88.4452 266.658 87.9862 266.993 87.6009 267.446L86.7339 266.698C87.1986 266.154 87.7936 265.735 88.5189 265.44C89.2442 265.145 90.0546 264.998 90.9499 264.998C91.7546 264.998 92.4516 265.128 93.0409 265.389C93.6302 265.638 94.0836 266.007 94.4009 266.494C94.7296 266.981 94.8939 267.554 94.8939 268.211C94.8939 268.596 94.8372 268.976 94.7239 269.35C94.6219 269.724 94.4292 270.121 94.1459 270.54C93.8739 270.948 93.4716 271.413 92.9389 271.934L88.3999 276.388L88.0599 275.912H95.4379V277H87.0909ZM102.33 277.102C101.276 277.102 100.386 276.87 99.6608 276.405C98.9355 275.929 98.3858 275.249 98.0118 274.365C97.6378 273.47 97.4508 272.399 97.4508 271.152C97.4508 269.803 97.6775 268.676 98.1308 267.769C98.5955 266.851 99.2358 266.16 100.052 265.695C100.868 265.23 101.814 264.998 102.891 264.998C103.423 264.998 103.933 265.049 104.421 265.151C104.908 265.253 105.339 265.417 105.713 265.644L105.22 266.63C104.914 266.426 104.562 266.284 104.166 266.205C103.769 266.114 103.35 266.069 102.908 266.069C101.627 266.069 100.601 266.477 99.8308 267.293C99.0715 268.109 98.6918 269.327 98.6918 270.948C98.6918 271.197 98.7031 271.509 98.7258 271.883C98.7598 272.246 98.8278 272.608 98.9298 272.971L98.5048 272.648C98.6295 272.059 98.8731 271.56 99.2358 271.152C99.5985 270.733 100.052 270.415 100.596 270.2C101.14 269.985 101.735 269.877 102.381 269.877C103.174 269.877 103.871 270.024 104.472 270.319C105.072 270.614 105.543 271.027 105.883 271.56C106.223 272.093 106.393 272.722 106.393 273.447C106.393 274.184 106.217 274.83 105.866 275.385C105.514 275.929 105.027 276.354 104.404 276.66C103.792 276.955 103.1 277.102 102.33 277.102ZM102.279 276.065C102.845 276.065 103.344 275.963 103.775 275.759C104.217 275.544 104.562 275.243 104.812 274.858C105.061 274.461 105.186 274.002 105.186 273.481C105.186 272.699 104.914 272.076 104.37 271.611C103.837 271.146 103.112 270.914 102.194 270.914C101.582 270.914 101.049 271.027 100.596 271.254C100.142 271.481 99.7855 271.792 99.5248 272.189C99.2641 272.574 99.1338 273.016 99.1338 273.515C99.1338 273.946 99.2528 274.359 99.4908 274.756C99.7288 275.141 100.08 275.459 100.545 275.708C101.021 275.946 101.599 276.065 102.279 276.065ZM108.554 279.482L109.302 276.337L109.438 277.068C109.178 277.068 108.957 276.983 108.775 276.813C108.605 276.643 108.52 276.422 108.52 276.15C108.52 275.878 108.605 275.657 108.775 275.487C108.957 275.317 109.172 275.232 109.421 275.232C109.682 275.232 109.892 275.323 110.05 275.504C110.22 275.685 110.305 275.901 110.305 276.15C110.305 276.241 110.3 276.331 110.288 276.422C110.277 276.513 110.254 276.615 110.22 276.728C110.186 276.841 110.141 276.977 110.084 277.136L109.37 279.482H108.554ZM117.337 277V276.133L122.284 271.288C122.737 270.846 123.077 270.461 123.304 270.132C123.531 269.792 123.684 269.475 123.763 269.18C123.842 268.885 123.882 268.608 123.882 268.347C123.882 267.656 123.644 267.112 123.168 266.715C122.703 266.318 122.012 266.12 121.094 266.12C120.391 266.12 119.768 266.228 119.224 266.443C118.691 266.658 118.232 266.993 117.847 267.446L116.98 266.698C117.445 266.154 118.04 265.735 118.765 265.44C119.49 265.145 120.301 264.998 121.196 264.998C122.001 264.998 122.698 265.128 123.287 265.389C123.876 265.638 124.33 266.007 124.647 266.494C124.976 266.981 125.14 267.554 125.14 268.211C125.14 268.596 125.083 268.976 124.97 269.35C124.868 269.724 124.675 270.121 124.392 270.54C124.12 270.948 123.718 271.413 123.185 271.934L118.646 276.388L118.306 275.912H125.684V277H117.337ZM132.44 277.102C131.522 277.102 130.706 276.864 129.992 276.388C129.278 275.901 128.717 275.209 128.309 274.314C127.901 273.407 127.697 272.319 127.697 271.05C127.697 269.781 127.901 268.698 128.309 267.803C128.717 266.896 129.278 266.205 129.992 265.729C130.706 265.242 131.522 264.998 132.44 264.998C133.358 264.998 134.174 265.242 134.888 265.729C135.602 266.205 136.163 266.896 136.571 267.803C136.99 268.698 137.2 269.781 137.2 271.05C137.2 272.319 136.99 273.407 136.571 274.314C136.163 275.209 135.602 275.901 134.888 276.388C134.174 276.864 133.358 277.102 132.44 277.102ZM132.44 275.98C133.143 275.98 133.755 275.793 134.276 275.419C134.797 275.034 135.205 274.478 135.5 273.753C135.795 273.016 135.942 272.115 135.942 271.05C135.942 269.985 135.795 269.089 135.5 268.364C135.205 267.627 134.797 267.072 134.276 266.698C133.755 266.313 133.143 266.12 132.44 266.12C131.76 266.12 131.154 266.313 130.621 266.698C130.088 267.072 129.675 267.627 129.38 268.364C129.085 269.089 128.938 269.985 128.938 271.05C128.938 272.115 129.085 273.016 129.38 273.753C129.675 274.478 130.088 275.034 130.621 275.419C131.154 275.793 131.76 275.98 132.44 275.98ZM139.242 277V276.133L144.189 271.288C144.642 270.846 144.982 270.461 145.209 270.132C145.435 269.792 145.588 269.475 145.668 269.18C145.747 268.885 145.787 268.608 145.787 268.347C145.787 267.656 145.549 267.112 145.073 266.715C144.608 266.318 143.917 266.12 142.999 266.12C142.296 266.12 141.673 266.228 141.129 266.443C140.596 266.658 140.137 266.993 139.752 267.446L138.885 266.698C139.349 266.154 139.944 265.735 140.67 265.44C141.395 265.145 142.205 264.998 143.101 264.998C143.905 264.998 144.602 265.128 145.192 265.389C145.781 265.638 146.234 266.007 146.552 266.494C146.88 266.981 147.045 267.554 147.045 268.211C147.045 268.596 146.988 268.976 146.875 269.35C146.773 269.724 146.58 270.121 146.297 270.54C146.025 270.948 145.622 271.413 145.09 271.934L140.551 276.388L140.211 275.912H147.589V277H139.242ZM153.188 277.102C152.326 277.102 151.51 276.966 150.74 276.694C149.98 276.411 149.368 276.037 148.904 275.572L149.499 274.603C149.884 275 150.4 275.328 151.046 275.589C151.703 275.85 152.417 275.98 153.188 275.98C154.174 275.98 154.927 275.765 155.449 275.334C155.981 274.903 156.248 274.325 156.248 273.6C156.248 272.875 155.987 272.297 155.466 271.866C154.956 271.435 154.145 271.22 153.035 271.22H152.185V270.319L155.857 265.712L156.027 266.188H149.397V265.1H157.047V265.967L153.375 270.574L152.78 270.183H153.239C154.667 270.183 155.732 270.5 156.435 271.135C157.149 271.77 157.506 272.586 157.506 273.583C157.506 274.252 157.347 274.852 157.03 275.385C156.712 275.918 156.231 276.337 155.585 276.643C154.95 276.949 154.151 277.102 153.188 277.102Z" fill="#EEEEEE" fill-opacity="0.3"/>
<path d="M46.7565 102.638V153.618H34.9581V132.716H11.7984V153.618H0V77.6677H11.7984V122.739H34.9581V102.638H46.7565Z" fill="#64B5F6"/>
<path d="M96.0341 142.694H72.3645L67.8491 153.618H55.7594L78.4822 102.638H90.1349L112.931 153.618H100.55L96.0341 142.694ZM96.0341 142.694L84.2357 114.218L72.3645 142.694H96.0341Z" fill="#64B5F6"/>
<path d="M145.548 154.492C140.353 154.492 135.643 153.376 131.419 151.142C127.243 148.86 123.942 145.729 121.514 141.747C119.135 137.717 117.946 133.178 117.946 128.128C117.946 123.079 119.135 118.563 121.514 114.582C123.942 110.552 127.243 107.42 131.419 105.187C135.643 102.905 140.377 101.764 145.621 101.764C150.039 101.764 154.02 102.541 157.565 104.094C161.158 105.648 164.168 107.882 166.596 110.795L159.021 117.786C155.574 113.805 151.301 111.814 146.203 111.814C143.047 111.814 140.231 112.518 137.755 113.926C135.279 115.286 133.337 117.204 131.929 119.68C130.569 122.156 129.89 124.972 129.89 128.128C129.89 131.284 130.569 134.1 131.929 136.576C133.337 139.052 135.279 140.995 137.755 142.403C140.231 143.762 143.047 144.442 146.203 144.442C151.301 144.442 155.574 142.427 159.021 138.397L166.596 145.389C164.168 148.35 161.158 150.608 157.565 152.162C153.972 153.715 149.966 154.492 145.548 154.492Z" fill="#64B5F6"/>
<path d="M181.767 129.772L202.044 104.167L217.453 103.876L196.332 128.68L218.691 154.856H204.926L181.767 129.772Z" fill="#64B5F6"/>
<path d="M251.441 154.492C247.411 154.492 243.502 153.958 239.715 152.89C235.977 151.773 232.966 150.341 230.684 148.593L234.69 139.708C236.875 141.31 239.472 142.597 242.483 143.568C245.493 144.539 248.503 145.025 251.513 145.025C254.864 145.025 257.34 144.539 258.942 143.568C260.544 142.548 261.345 141.213 261.345 139.562C261.345 138.348 260.86 137.353 259.889 136.576C258.966 135.751 257.753 135.095 256.247 134.61C254.791 134.124 252.8 133.59 250.275 133.008C246.391 132.085 243.211 131.163 240.735 130.24C238.259 129.318 236.122 127.837 234.326 125.798C232.578 123.758 231.704 121.039 231.704 117.641C231.704 114.679 232.505 112.009 234.107 109.629C235.71 107.202 238.113 105.284 241.317 103.876C244.57 102.468 248.527 101.764 253.189 101.764C256.442 101.764 259.622 102.152 262.729 102.929C265.837 103.706 268.556 104.823 270.886 106.279L267.245 115.237C262.535 112.567 257.825 111.232 253.116 111.232C249.814 111.232 247.362 111.766 245.76 112.834C244.206 113.902 243.429 115.31 243.429 117.058C243.429 118.806 244.328 120.117 246.124 120.991C247.969 121.816 250.761 122.642 254.499 123.467C258.384 124.39 261.564 125.312 264.04 126.235C266.516 127.157 268.628 128.614 270.376 130.604C272.173 132.595 273.071 135.29 273.071 138.688C273.071 141.602 272.246 144.272 270.595 146.7C268.993 149.079 266.565 150.972 263.312 152.38C260.059 153.788 256.102 154.492 251.441 154.492Z" fill="#64B5F6"/>
<path d="M22.0673 9C26.5827 9 30.4912 9.75257 33.7928 11.2577C37.143 12.7629 39.7163 14.8992 41.5128 17.6667C43.3092 20.4342 44.2074 23.7115 44.2074 27.4987C44.2074 31.2372 43.3092 34.5146 41.5128 37.3306C39.7163 40.0982 37.143 42.2345 33.7928 43.7396C30.4912 45.1962 26.5827 45.9245 22.0673 45.9245H11.7984V78.7081H0V9H22.0673ZM21.4118 36.311C24.9562 36.311 27.6509 35.5585 29.4959 34.0533C31.3409 32.4996 32.2634 30.3147 32.2634 27.4987C32.2634 24.634 31.3409 22.4492 29.4959 20.944C27.6509 19.3903 24.9562 18.6135 21.4118 18.6135H11.7984V36.311H21.4118Z" fill="#EAF9FF"/>
<path d="M103.029 9V59.9806H91.2302V39.0785H68.0705V59.9806H56.2721V9H68.0705V29.1009H91.2302V9H103.029Z" fill="#EAF9FF"/>
<path d="M152.306 49.0562H128.637L124.121 59.9806H112.032L134.754 9H146.407L169.203 59.9806H156.822L152.306 49.0562ZM152.306 49.0562L140.508 20.5799L128.637 49.0562H152.306Z" fill="#EAF9FF"/>
<path d="M210.615 59.9806L200.783 45.7788H200.201H189.932V59.9806H178.133V9H200.201C204.716 9 208.625 9.75257 211.926 11.2577C215.276 12.7629 217.85 14.8992 219.646 17.6667C221.443 20.4342 222.341 23.7115 222.341 27.4987C222.341 31.2858 221.418 34.5631 219.573 37.3306C217.777 40.0496 215.203 42.1374 211.853 43.594L223.288 59.9806H210.615ZM210.397 27.4987C210.397 24.634 209.474 22.4492 207.629 20.944C205.784 19.3903 203.09 18.6135 199.545 18.6135H189.932V36.3839H199.545C203.09 36.3839 205.784 35.607 207.629 34.0533C209.474 32.4996 210.397 30.3147 210.397 27.4987Z" fill="#EAF9FF"/>
<path d="M281.722 59.9806L281.65 29.3922L266.647 54.5912H261.33L246.4 30.0477V59.9806H235.33V9H245.089L264.17 40.6808L282.96 9H292.647L292.792 59.9806H281.722Z" fill="#EAF9FF"/>
<path d="M342.104 49.0562H318.434L313.919 59.9806H301.829L324.552 9H336.204L359 59.9806H346.619L342.104 49.0562ZM342.104 49.0562L330.305 20.5799L318.434 49.0562H342.104Z" fill="#EAF9FF"/>
<path d="M323.57 110.67V117.204H300.889V112.043L311.793 101.847C312.847 100.848 313.555 100.002 313.915 99.3084C314.276 98.5871 314.456 97.8657 314.456 97.1444C314.456 96.2011 314.137 95.4658 313.499 94.9387C312.861 94.4115 311.932 94.148 310.711 94.148C309.629 94.148 308.63 94.3977 307.714 94.8971C306.827 95.3687 306.091 96.0623 305.509 96.9779L299.391 93.5653C300.529 91.6787 302.124 90.1944 304.177 89.1123C306.23 88.0303 308.658 87.4893 311.46 87.4893C313.68 87.4893 315.636 87.85 317.328 88.5713C319.048 89.2927 320.38 90.3331 321.323 91.6926C322.294 93.0243 322.78 94.578 322.78 96.3537C322.78 97.9351 322.433 99.4333 321.739 100.848C321.073 102.235 319.769 103.817 317.827 105.593L312.334 110.67H323.57Z" fill="#F2C94C"/>
<path d="M323.57 148.125V154.659H300.889V149.498L311.793 139.302C312.847 138.303 313.555 137.457 313.915 136.764C314.276 136.042 314.456 135.321 314.456 134.599C314.456 133.656 314.137 132.921 313.499 132.394C312.861 131.867 311.932 131.603 310.711 131.603C309.629 131.603 308.63 131.853 307.714 132.352C306.827 132.824 306.091 133.517 305.509 134.433L299.391 131.02C300.529 129.134 302.124 127.649 304.177 126.567C306.23 125.485 308.658 124.944 311.46 124.944C313.68 124.944 315.636 125.305 317.328 126.026C319.048 126.748 320.38 127.788 321.323 129.148C322.294 130.479 322.78 132.033 322.78 133.809C322.78 135.39 322.433 136.888 321.739 138.303C321.073 139.691 319.769 141.272 317.827 143.048L312.334 148.125H323.57Z" fill="#F2C94C"/>
<path d="M335.599 131.35V126H356.599V130.225L349.991 137.658C352.123 137.658 355.188 138.672 356.387 140.192C357.986 142.22 357.986 145.768 357.986 145.768C357.986 145.768 358.202 147.891 356.92 150.33C355.638 152.768 352.624 153.77 350.524 154.385C343.595 156.412 334.533 152.864 334 151.851C334.533 150.837 336.126 147.638 336.665 146.888L336.665 146.782C337.731 147.289 340.929 148.426 342.528 148.809C344.128 149.193 345.727 149.823 348.392 148.809C349.724 148.302 350.429 147.052 350.524 146.782C351.057 145.261 350.461 144.188 349.991 143.741C348.925 142.727 347.111 142.22 346.26 142.22C344.128 142.22 343.594 142.22 341.995 142.22C341.995 141.206 341.995 140.192 341.995 138.165L348.179 131.35H335.599Z" fill="#F2C94C"/>
<path fill-rule="evenodd" clip-rule="evenodd" d="M334.571 91.0044C334.898 91.0044 335.116 91.2956 335.116 91.6947C335.116 92.0372 334.898 92.3285 334.571 92.3285C334.267 92.3285 334.028 92.0372 334.028 91.6947C334.028 91.2956 334.267 91.0044 334.571 91.0044ZM330.784 100.384C330.931 99.4268 331.549 97.7625 331.872 97.1261C331.549 96.4357 331.024 95.7993 330.565 95.7993C330.784 95.1116 331.697 94.2891 331.546 93.7065C331.307 93.151 330.955 93.2292 330 92.5955C330.323 91.8511 331.024 91.3765 331.48 91.2956C332.047 91.2174 331.952 90.2145 332.851 89.6802C333.751 89.146 334.578 88.8911 335.876 89.0438C337.173 89.1965 341.363 90.527 340.273 96.4357C342.666 102.344 351.136 94.4751 354.074 94.4751C353.529 95.7993 352.767 97.1261 352.199 98.4233C353.006 99.0597 354.074 98.4233 354.922 98.4233C354.074 101.711 352.441 103.035 351.136 104.332C352.441 109.58 357.448 107.538 361.908 106.983C361.389 108.73 359.557 108.943 358.711 110.243C360.257 112.204 361.908 114.852 363 117.476C360.999 115.885 356.841 114.164 355.469 113.528C352.769 112.204 347.285 112.204 344.607 113.528C345.13 114.852 346.218 115.489 347.066 116.152C345.673 119.437 342.952 117.476 341.363 116.813C339.97 118.113 337.422 118.245 336.726 117.476C336.726 117.476 336.726 116.654 337.575 115.966C338.095 115.038 335.942 114.852 335.355 113.528C335.355 112.282 336.418 113.528 337.032 112.204C335.638 108.943 330 108.256 330.784 100.384Z" fill="#F2C94C"/>
</g>
<defs>
<clipPath id="clip0_823_4">
<rect width="362" height="282" fill="white"/>
</clipPath>
</defs>
</svg>
