<?xml version="1.0" encoding="UTF-8"?>
<svg id="katman_1" data-name="katman 1" xmlns="http://www.w3.org/2000/svg" xmlns:xlink="http://www.w3.org/1999/xlink" viewBox="0 0 363 282">
  <defs>
    <style>
      .cls-1 {
        fill-rule: evenodd;
      }

      .cls-1, .cls-2 {
        fill: #f2c94c;
      }

      .cls-2 {
        font-family: BritannicBold, 'Britannic Bold';
        font-size: 46.5px;
      }

      .cls-3 {
        fill: #eaf9ff;
      }

      .cls-4, .cls-5 {
        fill: none;
      }

      .cls-6 {
        fill: #64b5f6;
      }

      .cls-5 {
        clip-path: url(#clippath);
      }
    </style>
    <clipPath id="clippath">
      <rect class="cls-4" width="362" height="282"/>
    </clipPath>
  </defs>
  <g class="cls-5">
    <g>
      <path class="cls-6" d="m46.81,96.75v52.67h-11.8v-21.6H11.86v21.6H.06v-78.47h11.8v46.57h23.16v-20.77h11.8Z"/>
      <path class="cls-6" d="m96.08,138.14h-23.67l-4.51,11.29h-12.09l22.72-52.67h11.65l22.79,52.67h-12.38l-4.52-11.29Zm0,0l-11.8-29.42-11.87,29.42h23.67Z"/>
      <path class="cls-6" d="m145.59,150.33c-5.19,0-9.9-1.15-14.13-3.46-4.18-2.36-7.48-5.59-9.9-9.71-2.38-4.16-3.57-8.85-3.57-14.07s1.19-9.88,3.57-14c2.43-4.16,5.73-7.4,9.9-9.71,4.22-2.36,8.96-3.54,14.2-3.54,4.42,0,8.4.8,11.94,2.41,3.59,1.61,6.6,3.91,9.03,6.92l-7.57,7.22c-3.45-4.11-7.72-6.17-12.82-6.17-3.16,0-5.97.73-8.45,2.18-2.48,1.41-4.42,3.39-5.83,5.95-1.36,2.56-2.04,5.47-2.04,8.73s.68,6.17,2.04,8.73c1.41,2.56,3.35,4.57,5.83,6.02,2.48,1.4,5.29,2.11,8.45,2.11,5.1,0,9.37-2.08,12.82-6.25l7.57,7.22c-2.43,3.06-5.44,5.39-9.03,7-3.59,1.6-7.6,2.41-12.01,2.41Z"/>
      <path class="cls-6" d="m181.8,124.79l20.27-26.46,15.41-.3-21.12,25.63,22.36,27.05h-13.76l-23.16-25.92Z"/>
      <path class="cls-6" d="m251.46,150.33c-4.03,0-7.94-.55-11.72-1.66-3.74-1.15-6.75-2.63-9.03-4.44l4.01-9.18c2.18,1.66,4.78,2.99,7.79,3.99,3.01,1,6.02,1.51,9.03,1.51,3.35,0,5.83-.5,7.43-1.51,1.6-1.05,2.4-2.43,2.4-4.14,0-1.25-.48-2.28-1.46-3.09-.92-.85-2.14-1.53-3.64-2.03-1.46-.5-3.45-1.05-5.97-1.66-3.88-.95-7.06-1.91-9.54-2.86-2.48-.95-4.61-2.48-6.41-4.59-1.75-2.11-2.62-4.92-2.62-8.43,0-3.06.8-5.82,2.4-8.28,1.6-2.51,4.01-4.49,7.21-5.94,3.25-1.45,7.21-2.18,11.87-2.18,3.25,0,6.43.4,9.54,1.2,3.11.8,5.83,1.96,8.16,3.46l-3.64,9.26c-4.71-2.76-9.42-4.14-14.13-4.14-3.3,0-5.75.55-7.35,1.66-1.55,1.1-2.33,2.56-2.33,4.36s.9,3.16,2.69,4.06c1.84.85,4.64,1.71,8.37,2.56,3.88.95,7.06,1.91,9.54,2.86,2.48.95,4.59,2.46,6.33,4.51,1.8,2.06,2.69,4.84,2.69,8.35,0,3.01-.82,5.77-2.48,8.28-1.6,2.46-4.03,4.41-7.28,5.87-3.25,1.45-7.21,2.18-11.87,2.18Z"/>
      <path class="cls-3" d="m22.13,0c4.51,0,8.42.78,11.72,2.33,3.35,1.56,5.92,3.76,7.72,6.62,1.8,2.86,2.69,6.25,2.69,10.16s-.9,7.25-2.69,10.16c-1.8,2.86-4.37,5.07-7.72,6.62-3.3,1.51-7.21,2.26-11.72,2.26h-10.27v33.87H.06V0h22.06Zm-.66,28.22c3.54,0,6.24-.78,8.08-2.33,1.84-1.61,2.77-3.86,2.77-6.77s-.92-5.22-2.77-6.77c-1.84-1.61-4.54-2.41-8.08-2.41h-9.61v18.29h9.61Z"/>
      <path class="cls-3" d="m103.07,0v52.67h-11.8v-21.6h-23.16v21.6h-11.8V0h11.8v20.77h23.16V0h11.8Z"/>
      <path class="cls-3" d="m152.34,41.39h-23.66l-4.52,11.29h-12.09L134.79,0h11.65l22.79,52.67h-12.38l-4.52-11.29Zm0,0l-11.8-29.42-11.87,29.42h23.66Z"/>
      <path class="cls-3" d="m210.64,52.67l-9.83-14.67h-10.85v14.67h-11.8V0h22.06c4.51,0,8.42.78,11.72,2.33,3.35,1.56,5.92,3.76,7.72,6.62,1.8,2.86,2.69,6.25,2.69,10.16s-.92,7.3-2.77,10.16c-1.8,2.81-4.37,4.97-7.72,6.47l11.43,16.93h-12.67Zm-.22-33.56c0-2.96-.92-5.22-2.77-6.77-1.84-1.61-4.54-2.41-8.08-2.41h-9.61v18.36h9.61c3.54,0,6.24-.8,8.08-2.41s2.77-3.86,2.77-6.77Z"/>
      <path class="cls-3" d="m281.74,52.67l-.07-31.6-15,26.04h-5.32l-14.93-25.36v30.93h-11.07V0h9.76l19.08,32.73L282.97,0h9.69l.14,52.67h-11.07Z"/>
      <path class="cls-3" d="m342.11,41.39h-23.67l-4.51,11.29h-12.09L324.56,0h11.65l22.79,52.67h-12.38l-4.51-11.29Zm0,0l-11.8-29.42-11.87,29.42h23.67Z"/>
      <path class="cls-1" d="m334.58,84.73c.33,0,.54.3.54.71,0,.35-.22.65-.54.65-.3,0-.54-.3-.54-.65,0-.41.24-.71.54-.71Zm-3.79,9.69c.15-.99.76-2.71,1.09-3.37-.32-.71-.85-1.37-1.31-1.37.22-.71,1.13-1.56.98-2.16-.24-.57-.59-.49-1.55-1.15.32-.77,1.02-1.26,1.48-1.34.57-.08.47-1.12,1.37-1.67.9-.55,1.73-.82,3.02-.66,1.3.16,5.49,1.53,4.4,7.64,2.39,6.1,10.86-2.03,13.8-2.03-.54,1.37-1.31,2.74-1.87,4.08.81.66,1.87,0,2.72,0-.85,3.4-2.48,4.76-3.79,6.11,1.3,5.42,6.31,3.31,10.77,2.74-.52,1.81-2.35,2.03-3.2,3.37,1.55,2.03,3.2,4.76,4.29,7.47-2-1.64-6.16-3.42-7.53-4.08-2.7-1.37-8.18-1.37-10.86,0,.52,1.37,1.61,2.03,2.46,2.71-1.39,3.39-4.11,1.37-5.7.68-1.39,1.34-3.94,1.48-4.64.69,0,0,0-.85.85-1.56.52-.96-1.63-1.15-2.22-2.52,0-1.29,1.06,0,1.68-1.37-1.39-3.37-7.03-4.08-6.25-12.21Z"/>
      <text class="cls-2" transform="translate(330.01 153.91) scale(1.15 1)"><tspan x="0" y="0">4</tspan></text>
      <text class="cls-2" transform="translate(301.28 113.28) rotate(-2.53) scale(1.01 1)"><tspan x="0" y="0">2</tspan></text>
      <text class="cls-2" transform="translate(298 153.12) scale(1.1 1)"><tspan x="0" y="0">2</tspan></text>
    </g>
  </g>
</svg>