<?xml version="1.0" encoding="UTF-8"?>
<svg xmlns="http://www.w3.org/2000/svg" xmlns:xlink="http://www.w3.org/1999/xlink" id="Groupe_5" data-name="Groupe 5" width="212.791" height="92.034" viewBox="0 0 212.791 92.034">
  <defs>
    <clipPath id="clip-path">
      <rect id="Rectangle_16" data-name="Rectangle 16" width="212.791" height="92.034" fill="#004a98"></rect>
    </clipPath>
  </defs>
  <g id="Groupe_5-2" data-name="Groupe 5" clip-path="url(#clip-path)">
    <path id="Tracé_107" data-name="Tracé 107" d="M321.075,270.1a3.646,3.646,0,0,1-.658.656,1.562,1.562,0,0,1-.9.281H316v-7.227h3.517a1.524,1.524,0,0,1,.905.281,3.734,3.734,0,0,1,.658.656,1.48,1.48,0,0,1,.219.8v.882a1.438,1.438,0,0,0,0,2.019v.877a1.368,1.368,0,0,1-.219.78m-1.228-4.527a.959.959,0,0,0-.341-.341h-2.045v1.509h2.055a.728.728,0,0,0,.317-.291l.013-.06Zm0,2.862a.959.959,0,0,0-.341-.341h-2.045v1.519h2.055a.781.781,0,0,0,.317-.3l.013-.049Z" transform="translate(-233.794 -195.181)" fill="#004a98"></path>
    <rect id="Rectangle_13" data-name="Rectangle 13" width="1.459" height="7.216" transform="translate(91.303 68.639)" fill="#004a98"></rect>
    <path id="Tracé_108" data-name="Tracé 108" d="M376.878,269.969a4.365,4.365,0,0,1-.887.877,1.625,1.625,0,0,1-.78.232h-1.9a1.625,1.625,0,0,1-.78-.232,4.357,4.357,0,0,1-.887-.877,1.3,1.3,0,0,1-.208-.741v-3.6a1.3,1.3,0,0,1,.208-.741,4.233,4.233,0,0,1,.887-.877,1.625,1.625,0,0,1,.78-.232h1.9a1.625,1.625,0,0,1,.78.232,4.236,4.236,0,0,1,.887.877,1.3,1.3,0,0,1,.208.741v3.6a1.3,1.3,0,0,1-.208.741m-1.251-.78v-3.546a2.006,2.006,0,0,0-.44-.45h-1.837a1.737,1.737,0,0,0-.45.45V269.2a1.9,1.9,0,0,0,.437.45h1.837a1.692,1.692,0,0,0,.453-.45Z" transform="translate(-274.81 -195.159)" fill="#004a98"></path>
    <rect id="Rectangle_14" data-name="Rectangle 14" width="1.459" height="7.216" transform="translate(106.111 68.639)" fill="#004a98"></rect>
    <path id="Tracé_109" data-name="Tracé 109" d="M432.229,271.1l-2.373-4.295V271.1H428.42v-7.2h1.509l2.336,4.331V263.9h1.449v7.2Z" transform="translate(-316.969 -195.248)" fill="#004a98"></path>
    <path id="Tracé_110" data-name="Tracé 110" d="M467.549,271.1l-2.372-4.295V271.1H463.74v-7.2h1.509l2.336,4.331V263.9h1.446v7.2Z" transform="translate(-343.1 -195.248)" fill="#004a98"></path>
    <path id="Tracé_111" data-name="Tracé 111" d="M504.388,269.969a4.361,4.361,0,0,1-.887.877,1.624,1.624,0,0,1-.78.232h-1.9a1.625,1.625,0,0,1-.78-.232,4.369,4.369,0,0,1-.887-.877,1.3,1.3,0,0,1-.208-.741v-3.6a1.3,1.3,0,0,1,.208-.741,4.234,4.234,0,0,1,.887-.877,1.625,1.625,0,0,1,.78-.232h1.9a1.624,1.624,0,0,1,.78.232,4.235,4.235,0,0,1,.887.877,1.3,1.3,0,0,1,.208.741v3.6a1.3,1.3,0,0,1-.208.741m-1.251-.78v-3.546a2.005,2.005,0,0,0-.44-.45h-1.837a1.739,1.739,0,0,0-.45.45V269.2a1.9,1.9,0,0,0,.437.45h1.837a1.692,1.692,0,0,0,.453-.45Z" transform="translate(-369.149 -195.159)" fill="#004a98"></path>
    <path id="Tracé_112" data-name="Tracé 112" d="M537.263,271.037h-1.608l-2.505-7.227H534.7l1.766,5.182,1.761-5.182h1.548Z" transform="translate(-394.454 -195.181)" fill="#004a98"></path>
    <path id="Tracé_113" data-name="Tracé 113" d="M571.43,270.963l-.481-1.387H568.4l-.5,1.387H566.36l2.508-7.253h1.605l2.508,7.253Zm-1.751-5.159-.83,2.36h1.657Z" transform="translate(-419.024 -195.107)" fill="#004a98"></path>
    <path id="Tracé_114" data-name="Tracé 114" d="M604.408,265.25v5.817h-1.449V265.25H601v-1.4h5.38v1.4Z" transform="translate(-444.653 -195.211)" fill="#004a98"></path>
    <rect id="Rectangle_15" data-name="Rectangle 15" width="1.459" height="7.216" transform="translate(165.369 68.639)" fill="#004a98"></rect>
    <path id="Tracé_115" data-name="Tracé 115" d="M661.573,269.969a4.38,4.38,0,0,1-.89.877,1.606,1.606,0,0,1-.78.232H658a1.606,1.606,0,0,1-.78-.232,4.447,4.447,0,0,1-.89-.877,1.3,1.3,0,0,1-.205-.741v-3.6a1.3,1.3,0,0,1,.205-.741,4.326,4.326,0,0,1,.89-.877,1.606,1.606,0,0,1,.78-.232h1.9a1.606,1.606,0,0,1,.78.232,4.246,4.246,0,0,1,.89.877,1.3,1.3,0,0,1,.205.741v3.6a1.3,1.3,0,0,1-.205.741m-1.254-.78v-3.546a1.913,1.913,0,0,0-.44-.45h-1.837a1.78,1.78,0,0,0-.45.45V269.2a1.952,1.952,0,0,0,.437.45h1.839a1.692,1.692,0,0,0,.45-.45Z" transform="translate(-485.439 -195.159)" fill="#004a98"></path>
    <path id="Tracé_116" data-name="Tracé 116" d="M696.359,271.1l-2.372-4.295V271.1H692.55v-7.2h1.509l2.336,4.331V263.9h1.449v7.2Z" transform="translate(-512.386 -195.248)" fill="#004a98"></path>
    <path id="Tracé_117" data-name="Tracé 117" d="M731.557,266.176a1.78,1.78,0,0,0-.682-.9h-1.605a1.89,1.89,0,0,0-.45.424v.585a.1.1,0,0,0,.036.083l3.065.83a1.4,1.4,0,0,1,1,1.387v.692a1.4,1.4,0,0,1-.205.744,4.189,4.189,0,0,1-.9.877,1.753,1.753,0,0,1-.78.232h-1.85a2.187,2.187,0,0,1-1.582-1.022,4.4,4.4,0,0,1-.463-.89l1.376-.46a1.821,1.821,0,0,0,.695.947h1.795a1.884,1.884,0,0,0,.45-.427v-.656a.106.106,0,0,0-.036-.086l-3.054-.814a1.408,1.408,0,0,1-1-1.389V265.7a1.382,1.382,0,0,1,.2-.741,4.083,4.083,0,0,1,.9-.877,1.71,1.71,0,0,1,.78-.232h1.678a2.187,2.187,0,0,1,1.584,1.022,4.959,4.959,0,0,1,.461.9Z" transform="translate(-537.978 -195.211)" fill="#004a98"></path>
    <path id="Tracé_118" data-name="Tracé 118" d="M326.394,165.5l-.192-1.621c-.952.812-2.383,1.86-3.717,1.86h-4.2a5.763,5.763,0,0,1-3.241-.952,14.236,14.236,0,0,1-2.242-2.242,4.459,4.459,0,0,1-.812-2.716v-.908a4.468,4.468,0,0,1,.809-2.719,14.33,14.33,0,0,1,2.243-2.24,5.763,5.763,0,0,1,3.241-.952h7.724v-2.232a1.651,1.651,0,0,0-.047-.476,6.72,6.72,0,0,0-2.05-1.956,1.429,1.429,0,0,0-.575-.143h-4.477c-.858,0-1.67,1.145-2.193,1.717-.239.286-.619.812-.619.812l-3.483-1.041a11.683,11.683,0,0,1,3.148-4.006,6.01,6.01,0,0,1,3.3-.924H323.4a5.925,5.925,0,0,1,3.291.952,14.656,14.656,0,0,1,2.287,2.242,4.759,4.759,0,0,1,.765,2.765v11.012l.38,3.767Zm-.336-9.058h-7.724a1.519,1.519,0,0,0-.572.1,6.391,6.391,0,0,0-1.954,1.954.779.779,0,0,0-.1.479v.809a.76.76,0,0,0,.1.476,6.222,6.222,0,0,0,1.954,1.909,1.427,1.427,0,0,0,.572.14h4.006a.975.975,0,0,0,.429-.094,10.284,10.284,0,0,0,3.288-2.432Z" transform="translate(-230.827 -107.099)" fill="#004a98"></path>
    <path id="Tracé_119" data-name="Tracé 119" d="M410.157,142.4l-.19-1.764c-.955.908-2.385,2-3.814,2h-3.72a5.8,5.8,0,0,1-3.252-1,14.952,14.952,0,0,1-2.289-2.289,4.706,4.706,0,0,1-.809-2.765v-9.154a4.612,4.612,0,0,1,.809-2.765,15.107,15.107,0,0,1,2.289-2.341,5.764,5.764,0,0,1,3.241-.952h3.72a6.086,6.086,0,0,1,3.671,1.821V113.6h3.728v24.974l.336,3.814Zm-.333-14.828c-.479-.715-2.812-2.708-3.814-2.708h-3.53a1.562,1.562,0,0,0-.572.1,6.837,6.837,0,0,0-2,2.05.962.962,0,0,0-.1.52v8.965a.95.95,0,0,0,.1.52,6.681,6.681,0,0,0,2,2,1.424,1.424,0,0,0,.572.143h3.53c.952,0,3.335-2,3.814-2.669Z" transform="translate(-293.042 -84.047)" fill="#004a98"></path>
    <path id="Tracé_120" data-name="Tracé 120" d="M503.391,142.938V120.2l-7.484,15.351h-2.575L485.94,120.2v22.742H482.08V114.33h4.958l7.627,15.593,7.677-15.593H507.2v28.608Z" transform="translate(-356.669 -84.588)" fill="#004a98"></path>
    <path id="Tracé_121" data-name="Tracé 121" d="M607.712,165.547l-.193-1.621c-.952.812-2.383,1.86-3.717,1.86h-4.2a5.763,5.763,0,0,1-3.241-.952,14.241,14.241,0,0,1-2.242-2.242,4.46,4.46,0,0,1-.809-2.716v-.908a4.468,4.468,0,0,1,.809-2.719,14.331,14.331,0,0,1,2.242-2.24,5.763,5.763,0,0,1,3.241-.952h7.724v-2.232a1.646,1.646,0,0,0-.047-.476,6.721,6.721,0,0,0-2.05-1.956,1.424,1.424,0,0,0-.572-.143h-4.482c-.858,0-1.667,1.145-2.193,1.717-.239.286-.619.812-.619.812l-3.483-1.041a11.691,11.691,0,0,1,3.15-4.006,5.981,5.981,0,0,1,3.288-.905h4.386a5.925,5.925,0,0,1,3.291.952,14.664,14.664,0,0,1,2.287,2.242,4.758,4.758,0,0,1,.765,2.765V161.8l.39,3.749Zm-.336-9.058h-7.724a1.519,1.519,0,0,0-.572.1,6.421,6.421,0,0,0-1.954,1.954.779.779,0,0,0-.094.479v.809a.782.782,0,0,0,.094.476,6.244,6.244,0,0,0,1.954,1.909,1.427,1.427,0,0,0,.572.14h4.006a.975.975,0,0,0,.429-.094,10.313,10.313,0,0,0,3.288-2.432Z" transform="translate(-438.963 -107.15)" fill="#004a98"></path>
    <path id="Tracé_122" data-name="Tracé 122" d="M691.974,150.643c-.52-1-1.717-2.622-2.862-2.622h-2.575c-1,0-3.288,1.86-3.764,2.575v14.732h-3.72V148.583l-.333-3.814h3.715l.193,1.668a6.05,6.05,0,0,1,3.764-1.857h2.625a5.77,5.77,0,0,1,3.244.952,11.144,11.144,0,0,1,3.195,4Z" transform="translate(-502.154 -106.967)" fill="#004a98"></path>
    <path id="Tracé_123" data-name="Tracé 123" d="M764.678,164.6a5.751,5.751,0,0,1-3.244.955h-4.862a5.907,5.907,0,0,1-3.291-.955,14.835,14.835,0,0,1-2.289-2.287,4.484,4.484,0,0,1-.809-2.719v-9.061a4.472,4.472,0,0,1,.809-2.716,14.812,14.812,0,0,1,2.289-2.289,5.926,5.926,0,0,1,3.291-.952h4.768a5.917,5.917,0,0,1,3.288.952,14.808,14.808,0,0,1,2.289,2.289,4.611,4.611,0,0,1,.762,2.716v5.913H753.893V159.5a.985.985,0,0,0,.1.52c.382.669,1.67,2.1,2.575,2.1h4.958a1.384,1.384,0,0,0,.572-.143,5.9,5.9,0,0,0,1.954-1.954l.286-.52,3.481,1.145a10.353,10.353,0,0,1-3.145,3.957m-.708-13.959a1.865,1.865,0,0,0-.049-.52,6.664,6.664,0,0,0-2.05-1.956,1.424,1.424,0,0,0-.572-.143h-4.719c-.905,0-2.193,1.431-2.575,2.1a.965.965,0,0,0-.1.52v2.386h10.062Z" transform="translate(-555.025 -106.968)" fill="#004a98"></path>
    <path id="Tracé_124" data-name="Tracé 124" d="M150.533,300.756h3.127l1.563-2.708-1.563-2.708h-3.127l-1.563,2.708Z" transform="translate(-110.216 -218.509)" fill="#0082ca"></path>
    <path id="Tracé_125" data-name="Tracé 125" d="M125.311,257.856h3.13L130,255.148l-1.563-2.708h-3.13l-1.561,2.708Z" transform="translate(-91.557 -186.769)" fill="#00b2e3"></path>
    <path id="Tracé_126" data-name="Tracé 126" d="M100.293,214.306h3.13l1.561-2.708-1.561-2.708h-3.13L98.73,211.6Z" transform="translate(-73.046 -154.548)" fill="#00b2e3"></path>
    <path id="Tracé_127" data-name="Tracé 127" d="M75.163,172.874H78.29l1.563-2.708L78.29,167.46H75.163L73.6,170.165Z" transform="translate(-54.453 -123.896)" fill="#0082ca"></path>
    <path id="Tracé_128" data-name="Tracé 128" d="M100.513,129.366h3.127l1.563-2.708-1.563-2.708h-3.127l-1.563,2.708Z" transform="translate(-73.209 -91.705)" fill="#00b2e3"></path>
    <path id="Tracé_129" data-name="Tracé 129" d="M125.523,86.676h3.127l1.563-2.708L128.65,81.26h-3.127l-1.563,2.708Z" transform="translate(-91.712 -60.121)" fill="#00b2e3"></path>
    <path id="Tracé_130" data-name="Tracé 130" d="M130.726,346.041H132.3l.786-1.361-.786-1.361h-1.571l-.786,1.361Z" transform="translate(-96.137 -254.007)" fill="#004a98"></path>
    <path id="Tracé_131" data-name="Tracé 131" d="M106.046,302.821h1.571l.786-1.363-.786-1.358h-1.571l-.786,1.358Z" transform="translate(-77.877 -222.03)" fill="#00b2e3"></path>
    <path id="Tracé_132" data-name="Tracé 132" d="M81.246,260.131H82.82l.783-1.361-.783-1.361H81.246l-.786,1.361Z" transform="translate(-59.529 -190.446)" fill="#00b2e3"></path>
    <path id="Tracé_133" data-name="Tracé 133" d="M56.456,217.441h1.571l.786-1.361-.786-1.361H56.456l-.786,1.361Z" transform="translate(-41.188 -158.862)" fill="#00b2e3"></path>
    <path id="Tracé_134" data-name="Tracé 134" d="M56.236,131.641H57.81l.783-1.361-.783-1.361H56.236l-.786,1.361Z" transform="translate(-41.025 -95.382)" fill="#00b2e3"></path>
    <path id="Tracé_135" data-name="Tracé 135" d="M81.036,88.521h1.571l.786-1.361L82.607,85.8H81.036l-.786,1.361Z" transform="translate(-59.373 -63.48)" fill="#00b2e3"></path>
    <path id="Tracé_136" data-name="Tracé 136" d="M105.826,45.831H107.4l.786-1.361L107.4,43.11h-1.571l-.786,1.361Z" transform="translate(-77.714 -31.895)" fill="#00b2e3"></path>
    <path id="Tracé_137" data-name="Tracé 137" d="M212.722,168.219h6.384l3.192-5.531-3.192-5.528h-6.384l-3.192,5.528Z" transform="translate(-155.022 -116.276)" fill="#7b868c"></path>
    <path id="Tracé_138" data-name="Tracé 138" d="M163.445,168.219h6.384l3.192-5.531-3.192-5.528h-6.384l-3.195,5.528Z" transform="translate(-118.562 -116.276)" fill="#0082ca"></path>
    <path id="Tracé_139" data-name="Tracé 139" d="M188.095,211.109h6.384l3.192-5.531-3.192-5.528h-6.384l-3.195,5.528Z" transform="translate(-136.799 -148.008)" fill="#0082ca"></path>
    <path id="Tracé_140" data-name="Tracé 140" d="M168.751,256.9h4.784l2.391-4.139-2.391-4.144h-4.784l-2.391,4.144Z" transform="translate(-123.082 -183.943)" fill="#004a98"></path>
    <path id="Tracé_141" data-name="Tracé 141" d="M143.671,213.67h4.784l2.391-4.142-2.391-4.139h-4.784l-2.391,4.139Z" transform="translate(-104.527 -151.959)" fill="#00b2e3"></path>
    <path id="Tracé_142" data-name="Tracé 142" d="M118.683,170.223h4.781l2.391-4.139-2.391-4.144h-4.781l-2.393,4.144Z" transform="translate(-86.038 -119.812)" fill="#004a98"></path>
    <path id="Tracé_143" data-name="Tracé 143" d="M143.453,127.613h4.781l2.391-4.139-2.391-4.144h-4.781l-2.393,4.144Z" transform="translate(-104.364 -88.287)" fill="#00b2e3"></path>
    <path id="Tracé_144" data-name="Tracé 144" d="M150.1,43.086h3.127l1.561-2.708L153.23,37.67H150.1l-1.563,2.708Z" transform="translate(-109.898 -27.87)" fill="#0082ca"></path>
    <path id="Tracé_145" data-name="Tracé 145" d="M130.616,2.721h1.574l.783-1.361L132.19,0h-1.574l-.786,1.361Z" transform="translate(-96.055)" fill="#004a98"></path>
    <path id="Tracé_146" data-name="Tracé 146" d="M188.095,125.489h6.384l3.192-5.528-3.192-5.531h-6.384l-3.195,5.531Z" transform="translate(-136.799 -84.662)" fill="#0082ca"></path>
    <path id="Tracé_147" data-name="Tracé 147" d="M168.321,84.593H173.1l2.393-4.141L173.1,76.31h-4.781l-2.391,4.142Z" transform="translate(-122.764 -56.458)" fill="#004a98"></path>
    <path id="Tracé_148" data-name="Tracé 148" d="M.869,175.09H2.607l.869-1.506-.869-1.5H.869L0,173.584Z" transform="translate(0 -127.314)" fill="#0082ca"></path>
    <path id="Tracé_149" data-name="Tracé 149" d="M34.671,174.068h2.378l1.189-2.058-1.189-2.06H34.671l-1.191,2.06Z" transform="translate(-24.77 -125.738)" fill="#004a98"></path>
  </g>
</svg>
